<svg width="1193" height="1006" viewBox="0 0 1193 1006" fill="none" xmlns="http://www.w3.org/2000/svg">
<path d="M47.805 519.737L68.131 506.938C72.7514 504.029 78.8691 505.412 81.7837 510.04L94.1136 529.622C94.6038 530.4 93.915 531.389 93.0155 531.2C78.0555 528.01 63.1094 524.824 48.1548 521.644C47.2415 521.451 47.0287 520.249 47.8241 519.748L47.805 519.737Z" fill="#CDD6AE"/>
<path d="M46.8602 522.459L26.5341 535.258C21.9138 538.167 15.7961 536.784 12.8815 532.155L0.556841 512.582C0.0666272 511.804 0.755508 510.815 1.65503 511.005C16.615 514.194 31.5611 517.38 46.5157 520.56C47.429 520.754 47.6419 521.955 46.8464 522.456L46.8602 522.459Z" fill="#D4A473"/>
<path d="M89.6836 557.925L110.01 545.126C114.63 542.217 120.748 543.6 123.662 548.228L135.992 567.81C136.483 568.588 135.794 569.578 134.894 569.388C119.934 566.198 104.988 563.012 90.0335 559.832C89.1202 559.639 88.9073 558.437 89.7028 557.936L89.6836 557.925Z" fill="#CDD6AE"/>
<path d="M88.7418 560.633L68.4157 573.432C63.7953 576.341 57.6776 574.958 54.763 570.33L42.4331 550.748C41.9428 549.97 42.6317 548.98 43.5312 549.17C58.4912 552.359 73.4373 555.546 88.3919 558.726C89.3052 558.919 89.5181 560.121 88.7226 560.622L88.7418 560.633Z" fill="#D4A473"/>
<path d="M102.954 607.32L123.28 594.521C127.9 591.612 134.018 592.995 136.933 597.624L149.263 617.205C149.753 617.984 149.064 618.973 148.164 618.783C133.204 615.594 118.258 612.408 103.304 609.227C102.39 609.034 102.178 607.833 102.973 607.332L102.954 607.32Z" fill="#CDD6AE"/>
<path d="M102.009 610.042L81.6833 622.841C77.0629 625.75 70.9452 624.367 68.0306 619.739L55.7006 600.157C55.2104 599.379 55.8993 598.389 56.7988 598.579C71.7588 601.769 86.7049 604.955 101.659 608.135C102.573 608.328 102.786 609.53 101.99 610.031L102.009 610.042Z" fill="#D4A473"/>
<path d="M144.833 645.508L165.159 632.709C169.779 629.8 175.897 631.183 178.812 635.812L191.141 655.393C191.632 656.172 190.943 657.161 190.043 656.971C175.083 653.782 160.137 650.596 145.183 647.415C144.269 647.222 144.056 646.021 144.852 645.52L144.833 645.508Z" fill="#CDD6AE"/>
<path d="M143.891 648.216L123.565 661.015C118.944 663.925 112.827 662.542 109.912 657.913L97.5822 638.331C97.092 637.553 97.7809 636.564 98.6804 636.754C113.64 639.943 128.587 643.129 143.541 646.31C144.454 646.503 144.667 647.704 143.872 648.205L143.891 648.216Z" fill="#D4A473"/>
<path d="M158.103 694.903L178.429 682.105C183.049 679.195 189.167 680.578 192.082 685.207L204.411 704.788C204.902 705.567 204.213 706.556 203.313 706.366C188.353 703.177 173.407 699.991 158.453 696.81C157.539 696.617 157.326 695.416 158.122 694.915L158.103 694.903Z" fill="#CDD6AE"/>
<path d="M157.158 697.625L136.832 710.424C132.212 713.334 126.094 711.951 123.18 707.322L110.85 687.74C110.359 686.962 111.048 685.973 111.948 686.163C126.908 689.352 141.854 692.538 156.808 695.719C157.722 695.912 157.935 697.113 157.139 697.614L157.158 697.625Z" fill="#D4A473"/>
<path d="M199.976 733.083L220.302 720.284C224.923 717.375 231.04 718.758 233.955 723.387L246.285 742.968C246.775 743.747 246.086 744.736 245.187 744.546C230.227 741.357 215.281 738.171 200.326 734.99C199.413 734.797 199.2 733.595 199.995 733.095L199.976 733.083Z" fill="#CDD6AE"/>
<path d="M199.04 735.8L178.714 748.599C174.093 751.508 167.976 750.125 165.061 745.496L152.731 725.915C152.241 725.136 152.93 724.147 153.829 724.337C168.789 727.526 183.735 730.712 198.69 733.893C199.603 734.086 199.816 735.287 199.021 735.788L199.04 735.8Z" fill="#D4A473"/>
<path d="M213.252 782.487L233.578 769.688C238.198 766.779 244.316 768.161 247.231 772.79L259.561 792.372C260.051 793.15 259.362 794.139 258.462 793.949C243.503 790.76 228.556 787.574 213.602 784.394C212.688 784.201 212.476 782.999 213.271 782.498L213.252 782.487Z" fill="#CDD6AE"/>
<path d="M212.307 785.209L191.981 798.008C187.361 800.917 181.243 799.534 178.328 794.905L165.998 775.324C165.508 774.545 166.197 773.556 167.097 773.746C182.057 776.935 197.003 780.121 211.957 783.302C212.871 783.495 213.083 784.696 212.288 785.197L212.307 785.209Z" fill="#D4A473"/>
<path d="M255.126 820.666L275.452 807.867C280.072 804.958 286.19 806.341 289.104 810.97L301.434 830.551C301.924 831.33 301.236 832.319 300.336 832.129C285.376 828.94 270.43 825.754 255.475 822.573C254.562 822.38 254.349 821.179 255.145 820.678L255.126 820.666Z" fill="#CDD6AE"/>
<path d="M254.189 823.383L233.863 836.182C229.243 839.091 223.125 837.708 220.21 833.079L207.88 813.498C207.39 812.719 208.079 811.73 208.978 811.92C223.938 815.109 238.885 818.295 253.839 821.476C254.752 821.669 254.965 822.87 254.17 823.371L254.189 823.383Z" fill="#D4A473"/>
<path d="M268.401 870.07L288.727 857.271C293.347 854.362 299.465 855.745 302.38 860.374L314.71 879.955C315.2 880.733 314.511 881.723 313.611 881.533C298.651 878.344 283.705 875.158 268.751 871.977C267.837 871.784 267.625 870.582 268.42 870.082L268.401 870.07Z" fill="#CDD6AE"/>
<path d="M267.451 872.784L247.125 885.582C242.505 888.492 236.387 887.109 233.472 882.48L221.142 862.899C220.652 862.12 221.341 861.131 222.24 861.321C237.2 864.51 252.147 867.696 267.101 870.877C268.014 871.07 268.227 872.271 267.432 872.772L267.451 872.784Z" fill="#D4A473"/>
<path d="M310.274 908.25L330.601 895.451C335.221 892.542 341.339 893.924 344.253 898.553L356.583 918.135C357.073 918.913 356.384 919.902 355.485 919.712C340.525 916.523 325.579 913.337 310.624 910.156C309.711 909.963 309.498 908.762 310.294 908.261L310.274 908.25Z" fill="#CDD6AE"/>
<path d="M309.338 910.966L289.012 923.765C284.391 926.674 278.274 925.292 275.359 920.663L263.029 901.081C262.539 900.303 263.228 899.314 264.127 899.504C279.087 902.693 294.034 905.879 308.988 909.059C309.901 909.253 310.114 910.454 309.319 910.955L309.338 910.966Z" fill="#D4A473"/>
<path d="M323.55 957.653L343.876 944.854C348.496 941.945 354.614 943.328 357.529 947.957L369.859 967.538C370.349 968.317 369.66 969.306 368.761 969.116C353.801 965.927 338.855 962.741 323.9 959.56C322.987 959.367 322.774 958.166 323.569 957.665L323.55 957.653Z" fill="#CDD6AE"/>
<path d="M322.6 960.367L302.274 973.166C297.653 976.075 291.536 974.692 288.621 970.063L276.291 950.482C275.801 949.703 276.49 948.714 277.389 948.904C292.349 952.093 307.295 955.279 322.25 958.46C323.163 958.653 323.376 959.854 322.581 960.355L322.6 960.367Z" fill="#D4A473"/>
<path d="M129.584 469.164L149.911 456.365C154.531 453.456 160.649 454.839 163.563 459.468L175.893 479.049C176.383 479.828 175.695 480.817 174.795 480.627C159.835 477.438 144.889 474.252 129.934 471.071C129.021 470.878 128.808 469.676 129.604 469.176L129.584 469.164Z" fill="#CDD6AE"/>
<path d="M127.75 471.525L107.424 484.324C102.803 487.233 96.6857 485.85 93.7711 481.221L81.4465 461.648C80.9563 460.87 81.6451 459.88 82.5446 460.07C97.5046 463.26 112.451 466.446 127.405 469.626C128.319 469.819 128.531 471.021 127.736 471.522L127.75 471.525Z" fill="#D4A473"/>
<path d="M170.565 506.996L190.891 494.197C195.511 491.288 201.629 492.671 204.543 497.3L216.873 516.881C217.364 517.66 216.675 518.649 215.775 518.459C200.815 515.27 185.869 512.084 170.915 508.903C170.001 508.71 169.788 507.509 170.584 507.008L170.565 506.996Z" fill="#CDD6AE"/>
<path d="M169.623 509.704L149.297 522.503C144.677 525.412 138.559 524.029 135.644 519.401L123.314 499.819C122.824 499.041 123.513 498.051 124.413 498.241C139.373 501.431 154.319 504.617 169.273 507.797C170.187 507.99 170.399 509.192 169.604 509.693L169.623 509.704Z" fill="#D4A473"/>
<path d="M183.835 556.391L204.161 543.592C208.782 540.683 214.899 542.066 217.814 546.695L230.144 566.276C230.634 567.055 229.945 568.044 229.046 567.854C214.086 564.665 199.14 561.479 184.185 558.298C183.272 558.105 183.059 556.904 183.854 556.403L183.835 556.391Z" fill="#CDD6AE"/>
<path d="M182.899 559.108L162.573 571.907C157.952 574.816 151.835 573.433 148.92 568.804L136.59 549.223C136.1 548.444 136.789 547.455 137.688 547.645C152.648 550.834 167.594 554.02 182.549 557.201C183.462 557.394 183.675 558.595 182.88 559.096L182.899 559.108Z" fill="#D4A473"/>
<path d="M225.714 594.579L246.04 581.781C250.66 578.871 256.778 580.254 259.692 584.883L272.022 604.465C272.513 605.243 271.824 606.232 270.924 606.042C255.964 602.853 241.018 599.667 226.063 596.486C225.15 596.293 224.937 595.092 225.733 594.591L225.714 594.579Z" fill="#CDD6AE"/>
<path d="M224.772 597.287L204.446 610.086C199.826 612.996 193.708 611.613 190.794 606.984L178.464 587.402C177.973 586.624 178.662 585.635 179.562 585.825C194.522 589.014 209.468 592.2 224.422 595.381C225.336 595.574 225.549 596.775 224.753 597.276L224.772 597.287Z" fill="#D4A473"/>
<path d="M238.984 643.974L259.31 631.176C263.931 628.266 270.048 629.649 272.963 634.278L285.293 653.859C285.783 654.638 285.094 655.627 284.195 655.437C269.235 652.248 254.289 649.062 239.334 645.881C238.421 645.688 238.208 644.487 239.003 643.986L238.984 643.974Z" fill="#CDD6AE"/>
<path d="M238.048 646.691L217.722 659.49C213.101 662.399 206.984 661.017 204.069 656.388L191.739 636.806C191.249 636.028 191.938 635.039 192.837 635.229C207.797 638.418 222.743 641.604 237.698 644.785C238.611 644.978 238.824 646.179 238.029 646.68L238.048 646.691Z" fill="#D4A473"/>
<path d="M280.857 682.154L301.184 669.355C305.804 666.446 311.922 667.829 314.836 672.458L327.166 692.039C327.656 692.818 326.967 693.807 326.068 693.617C311.108 690.428 296.162 687.242 281.207 684.061C280.294 683.868 280.081 682.667 280.877 682.166L280.857 682.154Z" fill="#CDD6AE"/>
<path d="M279.921 684.871L259.595 697.67C254.975 700.579 248.857 699.196 245.942 694.567L233.613 674.986C233.122 674.207 233.811 673.218 234.711 673.408C249.671 676.597 264.617 679.783 279.571 682.964C280.485 683.157 280.698 684.358 279.902 684.859L279.921 684.871Z" fill="#D4A473"/>
<path d="M294.133 731.558L314.459 718.759C319.08 715.85 325.197 717.232 328.112 721.861L340.442 741.443C340.932 742.221 340.243 743.21 339.344 743.02C324.384 739.831 309.438 736.645 294.483 733.464C293.57 733.271 293.357 732.07 294.152 731.569L294.133 731.558Z" fill="#CDD6AE"/>
<path d="M293.197 734.275L272.871 747.073C268.25 749.983 262.133 748.6 259.218 743.971L246.888 724.39C246.398 723.611 247.087 722.622 247.986 722.812C262.946 726.001 277.892 729.187 292.847 732.368C293.76 732.561 293.973 733.762 293.178 734.263L293.197 734.275Z" fill="#D4A473"/>
<path d="M336.006 769.738L356.332 756.939C360.953 754.029 367.07 755.412 369.985 760.041L382.315 779.623C382.805 780.401 382.116 781.39 381.217 781.2C366.257 778.011 351.311 774.825 336.356 771.644C335.443 771.451 335.23 770.25 336.025 769.749L336.006 769.738Z" fill="#CDD6AE"/>
<path d="M335.07 772.454L314.744 785.253C310.124 788.162 304.006 786.779 301.092 782.15L288.762 762.569C288.271 761.791 288.96 760.801 289.86 760.991C304.82 764.18 319.766 767.366 334.721 770.547C335.634 770.74 335.847 771.942 335.051 772.442L335.07 772.454Z" fill="#D4A473"/>
<path d="M349.282 819.141L369.608 806.342C374.229 803.433 380.346 804.816 383.261 809.445L395.591 829.026C396.081 829.805 395.392 830.794 394.493 830.604C379.533 827.415 364.587 824.229 349.632 821.048C348.719 820.855 348.506 819.653 349.301 819.153L349.282 819.141Z" fill="#CDD6AE"/>
<path d="M348.341 821.849L328.014 834.648C323.394 837.558 317.276 836.175 314.362 831.546L302.032 811.964C301.542 811.186 302.231 810.197 303.13 810.387C318.09 813.576 333.036 816.762 347.991 819.943C348.904 820.136 349.117 821.337 348.321 821.838L348.341 821.849Z" fill="#D4A473"/>
<path d="M391.155 857.321L411.481 844.522C416.102 841.613 422.219 842.996 425.134 847.624L437.464 867.206C437.954 867.984 437.265 868.974 436.366 868.784C421.406 865.595 406.46 862.409 391.505 859.228C390.592 859.035 390.379 857.833 391.174 857.332L391.155 857.321Z" fill="#CDD6AE"/>
<path d="M390.219 860.037L369.893 872.836C365.273 875.745 359.155 874.362 356.241 869.734L343.911 850.152C343.42 849.374 344.109 848.385 345.009 848.574C359.969 851.764 374.915 854.95 389.869 858.13C390.783 858.323 390.996 859.525 390.2 860.026L390.219 860.037Z" fill="#D4A473"/>
<path d="M404.431 906.724L424.758 893.925C429.378 891.016 435.495 892.399 438.41 897.028L450.74 916.609C451.23 917.388 450.541 918.377 449.642 918.187C434.682 914.998 419.736 911.812 404.781 908.631C403.868 908.438 403.655 907.237 404.451 906.736L404.431 906.724Z" fill="#CDD6AE"/>
<path d="M403.49 909.433L383.163 922.232C378.543 925.141 372.425 923.758 369.511 919.129L357.181 899.548C356.691 898.769 357.379 897.78 358.279 897.97C373.239 901.159 388.185 904.345 403.14 907.526C404.053 907.719 404.266 908.92 403.47 909.421L403.49 909.433Z" fill="#D4A473"/>
<path d="M209.568 417.879L229.894 405.08C234.514 402.171 240.632 403.554 243.546 408.182L255.876 427.764C256.367 428.542 255.678 429.532 254.778 429.342C239.818 426.152 224.872 422.966 209.917 419.786C209.004 419.593 208.791 418.391 209.587 417.89L209.568 417.879Z" fill="#CDD6AE"/>
<path d="M208.631 420.596L188.305 433.395C183.685 436.304 177.567 434.921 174.652 430.292L162.328 410.719C161.838 409.941 162.527 408.951 163.426 409.141C178.386 412.331 193.332 415.517 208.287 418.697C209.2 418.89 209.413 420.092 208.617 420.593L208.631 420.596Z" fill="#D4A473"/>
<path d="M251.455 456.062L271.781 443.263C276.401 440.354 282.519 441.736 285.433 446.365L297.763 465.947C298.254 466.725 297.565 467.714 296.665 467.524C281.705 464.335 266.759 461.149 251.804 457.969C250.891 457.775 250.678 456.574 251.474 456.073L251.455 456.062Z" fill="#CDD6AE"/>
<path d="M250.504 458.775L230.178 471.574C225.558 474.484 219.44 473.101 216.525 468.472L204.196 448.89C203.705 448.112 204.394 447.123 205.294 447.313C220.254 450.502 235.2 453.688 250.154 456.869C251.068 457.062 251.281 458.263 250.485 458.764L250.504 458.775Z" fill="#D4A473"/>
<path d="M264.717 505.462L285.043 492.663C289.663 489.754 295.781 491.137 298.695 495.766L311.025 515.347C311.515 516.126 310.827 517.115 309.927 516.925C294.967 513.736 280.021 510.55 265.066 507.369C264.153 507.176 263.94 505.975 264.736 505.474L264.717 505.462Z" fill="#CDD6AE"/>
<path d="M263.78 508.179L243.454 520.978C238.834 523.887 232.716 522.504 229.801 517.875L217.471 498.294C216.981 497.515 217.67 496.526 218.57 496.716C233.53 499.905 248.476 503.091 263.43 506.272C264.344 506.465 264.556 507.667 263.761 508.167L263.78 508.179Z" fill="#D4A473"/>
<path d="M306.604 543.645L326.93 530.846C331.55 527.937 337.668 529.32 340.583 533.949L352.912 553.53C353.403 554.309 352.714 555.298 351.814 555.108C336.854 551.919 321.908 548.733 306.954 545.552C306.04 545.359 305.827 544.158 306.623 543.657L306.604 543.645Z" fill="#CDD6AE"/>
<path d="M305.653 546.359L285.327 559.158C280.707 562.067 274.589 560.684 271.674 556.055L259.344 536.474C258.854 535.695 259.543 534.706 260.443 534.896C275.403 538.085 290.349 541.271 305.303 544.452C306.217 544.645 306.429 545.846 305.634 546.347L305.653 546.359Z" fill="#D4A473"/>
<path d="M319.866 593.045L340.192 580.247C344.812 577.337 350.93 578.72 353.844 583.349L366.174 602.93C366.664 603.709 365.976 604.698 365.076 604.508C350.116 601.319 335.17 598.133 320.215 594.952C319.302 594.759 319.089 593.558 319.885 593.057L319.866 593.045Z" fill="#CDD6AE"/>
<path d="M318.929 595.762L298.603 608.561C293.983 611.471 287.865 610.088 284.951 605.459L272.621 585.877C272.13 585.099 272.819 584.11 273.719 584.3C288.679 587.489 303.625 590.675 318.579 593.856C319.493 594.049 319.706 595.25 318.91 595.751L318.929 595.762Z" fill="#D4A473"/>
<path d="M361.747 631.22L382.073 618.421C386.694 615.512 392.811 616.895 395.726 621.523L408.056 641.105C408.546 641.883 407.857 642.873 406.958 642.683C391.998 639.493 377.052 636.307 362.097 633.127C361.184 632.934 360.971 631.732 361.766 631.231L361.747 631.22Z" fill="#CDD6AE"/>
<path d="M360.802 633.942L340.476 646.741C335.856 649.65 329.738 648.267 326.823 643.638L314.493 624.057C314.003 623.279 314.692 622.289 315.592 622.479C330.551 625.668 345.498 628.854 360.452 632.035C361.366 632.228 361.578 633.43 360.783 633.93L360.802 633.942Z" fill="#D4A473"/>
<path d="M375.015 680.629L395.341 667.83C399.961 664.921 406.079 666.303 408.993 670.932L421.323 690.514C421.814 691.292 421.125 692.281 420.225 692.091C405.265 688.902 390.319 685.716 375.364 682.536C374.451 682.342 374.238 681.141 375.034 680.64L375.015 680.629Z" fill="#CDD6AE"/>
<path d="M374.078 683.346L353.752 696.144C349.132 699.054 343.014 697.671 340.099 693.042L327.769 673.461C327.279 672.682 327.968 671.693 328.868 671.883C343.828 675.072 358.774 678.258 373.728 681.439C374.642 681.632 374.855 682.833 374.059 683.334L374.078 683.346Z" fill="#D4A473"/>
<path d="M416.896 718.803L437.223 706.004C441.843 703.095 447.961 704.478 450.875 709.107L463.205 728.688C463.695 729.467 463.007 730.456 462.107 730.266C447.147 727.077 432.201 723.891 417.246 720.71C416.333 720.517 416.12 719.316 416.916 718.815L416.896 718.803Z" fill="#CDD6AE"/>
<path d="M415.951 721.525L395.625 734.324C391.005 737.233 384.887 735.85 381.972 731.222L369.643 711.64C369.152 710.862 369.841 709.873 370.741 710.063C385.701 713.252 400.647 716.438 415.601 719.618C416.515 719.811 416.728 721.013 415.932 721.514L415.951 721.525Z" fill="#D4A473"/>
<path d="M430.164 768.212L450.49 755.413C455.11 752.504 461.228 753.887 464.142 758.516L476.472 778.097C476.962 778.876 476.274 779.865 475.374 779.675C460.414 776.486 445.468 773.3 430.513 770.119C429.6 769.926 429.387 768.724 430.183 768.224L430.164 768.212Z" fill="#CDD6AE"/>
<path d="M429.222 770.92L408.896 783.719C404.276 786.629 398.158 785.246 395.243 780.617L382.913 761.035C382.423 760.257 383.112 759.268 384.011 759.458C398.971 762.647 413.918 765.833 428.872 769.014C429.785 769.207 429.998 770.408 429.203 770.909L429.222 770.92Z" fill="#D4A473"/>
<path d="M472.045 806.387L492.372 793.588C496.992 790.678 503.11 792.061 506.024 796.69L518.354 816.271C518.844 817.05 518.155 818.039 517.256 817.849C502.296 814.66 487.35 811.474 472.395 808.293C471.482 808.1 471.269 806.899 472.065 806.398L472.045 806.387Z" fill="#CDD6AE"/>
<path d="M471.1 809.109L450.774 821.907C446.154 824.817 440.036 823.434 437.121 818.805L424.791 799.224C424.301 798.445 424.99 797.456 425.89 797.646C440.85 800.835 455.796 804.021 470.75 807.202C471.664 807.395 471.876 808.596 471.081 809.097L471.1 809.109Z" fill="#D4A473"/>
<path d="M485.313 855.795L505.639 842.996C510.259 840.087 516.377 841.47 519.292 846.099L531.621 865.68C532.112 866.459 531.423 867.448 530.523 867.258C515.563 864.069 500.617 860.883 485.663 857.702C484.749 857.509 484.536 856.308 485.332 855.807L485.313 855.795Z" fill="#CDD6AE"/>
<path d="M484.371 858.504L464.045 871.303C459.424 874.212 453.307 872.829 450.392 868.2L438.062 848.619C437.572 847.84 438.261 846.851 439.16 847.041C454.12 850.23 469.066 853.416 484.021 856.597C484.934 856.79 485.147 857.991 484.352 858.492L484.371 858.504Z" fill="#D4A473"/>
<path d="M290.457 366.945L310.783 354.146C315.403 351.236 321.521 352.619 324.436 357.248L336.766 376.83C337.256 377.608 336.567 378.597 335.668 378.407C320.708 375.218 305.762 372.032 290.807 368.851C289.894 368.658 289.681 367.457 290.476 366.956L290.457 366.945Z" fill="#CDD6AE"/>
<path d="M289.521 369.662L269.195 382.46C264.574 385.37 258.457 383.987 255.542 379.358L243.217 359.785C242.727 359.006 243.416 358.017 244.316 358.207C259.276 361.396 274.222 364.582 289.176 367.763C290.09 367.956 290.302 369.158 289.507 369.658L289.521 369.662Z" fill="#D4A473"/>
<path d="M332.336 405.133L352.662 392.334C357.282 389.425 363.4 390.808 366.315 395.436L378.645 415.018C379.135 415.796 378.446 416.785 377.546 416.596C362.587 413.406 347.64 410.22 332.686 407.04C331.773 406.847 331.56 405.645 332.355 405.144L332.336 405.133Z" fill="#CDD6AE"/>
<path d="M331.394 407.841L311.068 420.64C306.448 423.549 300.33 422.166 297.415 417.537L285.085 397.956C284.595 397.177 285.284 396.188 286.184 396.378C301.143 399.567 316.09 402.753 331.044 405.934C331.958 406.127 332.17 407.329 331.375 407.829L331.394 407.841Z" fill="#D4A473"/>
<path d="M345.606 454.528L365.932 441.729C370.553 438.82 376.67 440.203 379.585 444.832L391.915 464.413C392.405 465.191 391.716 466.181 390.817 465.991C375.857 462.802 360.911 459.616 345.956 456.435C345.043 456.242 344.83 455.04 345.625 454.54L345.606 454.528Z" fill="#CDD6AE"/>
<path d="M344.67 457.245L324.344 470.044C319.723 472.953 313.606 471.57 310.691 466.941L298.361 447.36C297.871 446.581 298.56 445.592 299.459 445.782C314.419 448.971 329.365 452.157 344.32 455.338C345.233 455.531 345.446 456.732 344.651 457.233L344.67 457.245Z" fill="#D4A473"/>
<path d="M387.485 492.716L407.811 479.917C412.432 477.008 418.549 478.391 421.464 483.02L433.794 502.601C434.284 503.38 433.595 504.369 432.696 504.179C417.736 500.99 402.79 497.804 387.835 494.623C386.922 494.43 386.709 493.229 387.504 492.728L387.485 492.716Z" fill="#CDD6AE"/>
<path d="M386.543 495.424L366.217 508.223C361.597 511.132 355.479 509.749 352.565 505.121L340.235 485.539C339.744 484.761 340.433 483.772 341.333 483.961C356.293 487.151 371.239 490.337 386.193 493.517C387.107 493.71 387.32 494.912 386.524 495.413L386.543 495.424Z" fill="#D4A473"/>
<path d="M400.755 542.111L421.081 529.312C425.702 526.403 431.819 527.786 434.734 532.415L447.064 551.996C447.554 552.775 446.865 553.764 445.966 553.574C431.006 550.385 416.06 547.199 401.105 544.018C400.192 543.825 399.979 542.624 400.774 542.123L400.755 542.111Z" fill="#CDD6AE"/>
<path d="M399.819 544.828L379.493 557.627C374.872 560.536 368.755 559.153 365.84 554.525L353.51 534.943C353.02 534.165 353.709 533.175 354.608 533.365C369.568 536.555 384.514 539.741 399.469 542.921C400.382 543.114 400.595 544.316 399.8 544.817L399.819 544.828Z" fill="#D4A473"/>
<path d="M442.629 580.291L462.955 567.492C467.575 564.583 473.693 565.966 476.607 570.594L488.937 590.176C489.428 590.954 488.739 591.944 487.839 591.754C472.879 588.565 457.933 585.378 442.979 582.198C442.065 582.005 441.852 580.803 442.648 580.302L442.629 580.291Z" fill="#CDD6AE"/>
<path d="M441.692 583.008L421.366 595.806C416.746 598.716 410.628 597.333 407.713 592.704L395.384 573.123C394.893 572.344 395.582 571.355 396.482 571.545C411.442 574.734 426.388 577.92 441.342 581.101C442.256 581.294 442.468 582.495 441.673 582.996L441.692 583.008Z" fill="#D4A473"/>
<path d="M455.904 629.695L476.23 616.896C480.851 613.986 486.968 615.369 489.883 619.998L502.213 639.58C502.703 640.358 502.014 641.347 501.115 641.157C486.155 637.968 471.209 634.782 456.254 631.601C455.341 631.408 455.128 630.207 455.923 629.706L455.904 629.695Z" fill="#CDD6AE"/>
<path d="M454.968 632.411L434.642 645.21C430.021 648.12 423.904 646.737 420.989 642.108L408.659 622.526C408.169 621.748 408.858 620.759 409.757 620.949C424.717 624.138 439.663 627.324 454.618 630.505C455.531 630.698 455.744 631.899 454.949 632.4L454.968 632.411Z" fill="#D4A473"/>
<path d="M497.778 667.874L518.104 655.075C522.724 652.166 528.842 653.549 531.756 658.178L544.086 677.759C544.576 678.538 543.888 679.527 542.988 679.337C528.028 676.148 513.082 672.962 498.127 669.781C497.214 669.588 497.001 668.387 497.797 667.886L497.778 667.874Z" fill="#CDD6AE"/>
<path d="M496.841 670.591L476.515 683.39C471.895 686.299 465.777 684.916 462.862 680.287L450.532 660.706C450.042 659.927 450.731 658.938 451.631 659.128C466.59 662.317 481.537 665.503 496.491 668.684C497.405 668.877 497.617 670.078 496.822 670.579L496.841 670.591Z" fill="#D4A473"/>
<path d="M511.053 717.278L531.379 704.479C536 701.57 542.117 702.953 545.032 707.581L557.362 727.163C557.852 727.941 557.163 728.931 556.264 728.741C541.304 725.551 526.358 722.365 511.403 719.185C510.49 718.992 510.277 717.79 511.072 717.289L511.053 717.278Z" fill="#CDD6AE"/>
<path d="M510.112 719.986L489.786 732.785C485.165 735.694 479.047 734.311 476.133 729.683L463.803 710.101C463.313 709.323 464.002 708.334 464.901 708.523C479.861 711.713 494.807 714.899 509.762 718.079C510.675 718.272 510.888 719.474 510.092 719.975L510.112 719.986Z" fill="#D4A473"/>
<path d="M552.927 755.458L573.253 742.659C577.873 739.749 583.991 741.132 586.905 745.761L599.235 765.343C599.726 766.121 599.037 767.11 598.137 766.92C583.177 763.731 568.231 760.545 553.277 757.364C552.363 757.171 552.15 755.97 552.946 755.469L552.927 755.458Z" fill="#CDD6AE"/>
<path d="M551.99 758.174L531.664 770.973C527.044 773.882 520.926 772.499 518.012 767.871L505.682 748.289C505.191 747.511 505.88 746.522 506.78 746.711C521.74 749.901 536.686 753.087 551.64 756.267C552.554 756.46 552.767 757.662 551.971 758.163L551.99 758.174Z" fill="#D4A473"/>
<path d="M566.202 804.861L586.528 792.062C591.149 789.153 597.266 790.536 600.181 795.165L612.511 814.746C613.001 815.525 612.312 816.514 611.413 816.324C596.453 813.135 581.507 809.949 566.552 806.768C565.639 806.575 565.426 805.374 566.221 804.873L566.202 804.861Z" fill="#CDD6AE"/>
<path d="M565.261 807.57L544.934 820.368C540.314 823.278 534.196 821.895 531.282 817.266L518.952 797.685C518.462 796.906 519.151 795.917 520.05 796.107C535.01 799.296 549.956 802.482 564.911 805.663C565.824 805.856 566.037 807.057 565.241 807.558L565.261 807.57Z" fill="#D4A473"/>
<path d="M371.338 316.016L391.664 303.217C396.285 300.308 402.402 301.69 405.317 306.319L417.647 325.901C418.137 326.679 417.448 327.668 416.549 327.478C401.589 324.289 386.643 321.103 371.688 317.923C370.775 317.729 370.562 316.528 371.358 316.027L371.338 316.016Z" fill="#CDD6AE"/>
<path d="M370.402 318.733L350.076 331.531C345.456 334.441 339.338 333.058 336.423 328.429L324.099 308.856C323.609 308.077 324.297 307.088 325.197 307.278C340.157 310.467 355.103 313.653 370.058 316.834C370.971 317.027 371.184 318.229 370.388 318.729L370.402 318.733Z" fill="#D4A473"/>
<path d="M413.217 354.204L433.543 341.405C438.164 338.496 444.281 339.879 447.196 344.507L459.526 364.089C460.016 364.867 459.327 365.856 458.428 365.667C443.468 362.477 428.522 359.291 413.567 356.111C412.654 355.918 412.441 354.716 413.236 354.215L413.217 354.204Z" fill="#CDD6AE"/>
<path d="M412.275 356.912L391.949 369.711C387.329 372.62 381.211 371.238 378.296 366.609L365.966 347.027C365.476 346.249 366.165 345.26 367.064 345.449C382.024 348.639 396.971 351.825 411.925 355.005C412.838 355.198 413.051 356.4 412.256 356.901L412.275 356.912Z" fill="#D4A473"/>
<path d="M426.488 403.599L446.814 390.8C451.434 387.891 457.552 389.274 460.466 393.903L472.796 413.484C473.286 414.263 472.598 415.252 471.698 415.062C456.738 411.873 441.792 408.687 426.837 405.506C425.924 405.313 425.711 404.112 426.507 403.611L426.488 403.599Z" fill="#CDD6AE"/>
<path d="M425.551 406.316L405.225 419.115C400.605 422.024 394.487 420.641 391.572 416.012L379.242 396.431C378.752 395.652 379.441 394.663 380.341 394.853C395.3 398.042 410.247 401.228 425.201 404.409C426.115 404.602 426.327 405.803 425.532 406.304L425.551 406.316Z" fill="#D4A473"/>
<path d="M468.366 441.787L488.692 428.988C493.313 426.079 499.43 427.462 502.345 432.091L514.675 451.672C515.165 452.451 514.476 453.44 513.577 453.25C498.617 450.061 483.671 446.875 468.716 443.694C467.803 443.501 467.59 442.3 468.385 441.799L468.366 441.787Z" fill="#CDD6AE"/>
<path d="M467.424 444.496L447.098 457.294C442.478 460.204 436.36 458.821 433.445 454.192L421.115 434.611C420.625 433.832 421.314 432.843 422.214 433.033C437.174 436.222 452.12 439.408 467.074 442.589C467.988 442.782 468.2 443.983 467.405 444.484L467.424 444.496Z" fill="#D4A473"/>
<path d="M481.636 491.182L501.963 478.383C506.583 475.474 512.701 476.857 515.615 481.486L527.945 501.067C528.435 501.846 527.747 502.835 526.847 502.645C511.887 499.456 496.941 496.27 481.986 493.089C481.073 492.896 480.86 491.695 481.656 491.194L481.636 491.182Z" fill="#CDD6AE"/>
<path d="M480.7 493.899L460.374 506.698C455.754 509.607 449.636 508.224 446.722 503.596L434.392 484.014C433.901 483.236 434.59 482.247 435.49 482.436C450.45 485.626 465.396 488.812 480.35 491.992C481.264 492.185 481.477 493.387 480.681 493.888L480.7 493.899Z" fill="#D4A473"/>
<path d="M523.51 529.362L543.836 516.563C548.456 513.654 554.574 515.037 557.489 519.666L569.819 539.247C570.309 540.025 569.62 541.015 568.721 540.825C553.761 537.636 538.814 534.45 523.86 531.269C522.947 531.076 522.734 529.874 523.529 529.374L523.51 529.362Z" fill="#CDD6AE"/>
<path d="M522.573 532.079L502.247 544.878C497.627 547.787 491.509 546.404 488.594 541.775L476.264 522.194C475.774 521.415 476.463 520.426 477.363 520.616C492.322 523.805 507.269 526.991 522.223 530.172C523.137 530.365 523.349 531.566 522.554 532.067L522.573 532.079Z" fill="#D4A473"/>
<path d="M536.786 578.766L557.112 565.967C561.732 563.057 567.85 564.44 570.764 569.069L583.094 588.651C583.585 589.429 582.896 590.418 581.996 590.228C567.036 587.039 552.09 583.853 537.136 580.672C536.222 580.479 536.009 579.278 536.805 578.777L536.786 578.766Z" fill="#CDD6AE"/>
<path d="M535.849 581.482L515.523 594.281C510.903 597.191 504.785 595.808 501.87 591.179L489.54 571.597C489.05 570.819 489.739 569.83 490.639 570.02C505.599 573.209 520.545 576.395 535.499 579.576C536.413 579.769 536.625 580.97 535.83 581.471L535.849 581.482Z" fill="#D4A473"/>
<path d="M578.659 616.945L598.985 604.146C603.605 601.237 609.723 602.62 612.638 607.249L624.968 626.83C625.458 627.609 624.769 628.598 623.869 628.408C608.91 625.219 593.963 622.033 579.009 618.852C578.095 618.659 577.883 617.458 578.678 616.957L578.659 616.945Z" fill="#CDD6AE"/>
<path d="M577.722 619.662L557.396 632.461C552.776 635.37 546.658 633.987 543.743 629.359L531.414 609.777C530.923 608.999 531.612 608.009 532.512 608.199C547.472 611.389 562.418 614.575 577.372 617.755C578.286 617.948 578.499 619.15 577.703 619.651L577.722 619.662Z" fill="#D4A473"/>
<path d="M591.935 666.349L612.261 653.55C616.881 650.641 622.999 652.024 625.913 656.652L638.243 676.234C638.733 677.012 638.045 678.002 637.145 677.812C622.185 674.622 607.239 671.436 592.284 668.256C591.371 668.063 591.158 666.861 591.954 666.36L591.935 666.349Z" fill="#CDD6AE"/>
<path d="M590.993 669.057L570.667 681.856C566.046 684.765 559.929 683.382 557.014 678.754L544.684 659.172C544.194 658.394 544.883 657.405 545.782 657.595C560.742 660.784 575.688 663.97 590.643 667.15C591.556 667.344 591.769 668.545 590.974 669.046L590.993 669.057Z" fill="#D4A473"/>
<path d="M633.808 704.528L654.134 691.73C658.755 688.82 664.872 690.203 667.787 694.832L680.117 714.413C680.607 715.192 679.918 716.181 679.019 715.991C664.059 712.802 649.113 709.616 634.158 706.435C633.245 706.242 633.032 705.041 633.827 704.54L633.808 704.528Z" fill="#CDD6AE"/>
<path d="M632.871 707.245L612.545 720.044C607.925 722.954 601.807 721.571 598.892 716.942L586.562 697.361C586.072 696.582 586.761 695.593 587.661 695.783C602.621 698.972 617.567 702.158 632.521 705.339C633.435 705.532 633.647 706.733 632.852 707.234L632.871 707.245Z" fill="#D4A473"/>
<path d="M647.084 753.932L667.41 741.133C672.03 738.224 678.148 739.607 681.062 744.236L693.392 763.817C693.882 764.596 693.194 765.585 692.294 765.395C677.334 762.206 662.388 759.02 647.433 755.839C646.52 755.646 646.307 754.445 647.103 753.944L647.084 753.932Z" fill="#CDD6AE"/>
<path d="M646.142 756.641L625.816 769.44C621.195 772.349 615.078 770.966 612.163 766.337L599.833 746.756C599.343 745.977 600.032 744.988 600.931 745.178C615.891 748.367 630.837 751.553 645.792 754.734C646.705 754.927 646.918 756.128 646.123 756.629L646.142 756.641Z" fill="#D4A473"/>
<path d="M452.22 265.087L472.546 252.288C477.166 249.379 483.284 250.761 486.199 255.39L498.528 274.972C499.019 275.75 498.33 276.739 497.43 276.55C482.47 273.36 467.524 270.174 452.57 266.994C451.656 266.801 451.443 265.599 452.239 265.098L452.22 265.087Z" fill="#CDD6AE"/>
<path d="M451.284 267.804L430.957 280.602C426.337 283.512 420.219 282.129 417.305 277.5L404.98 257.927C404.49 257.149 405.179 256.159 406.078 256.349C421.038 259.538 435.984 262.724 450.939 265.905C451.852 266.098 452.065 267.3 451.27 267.8L451.284 267.804Z" fill="#D4A473"/>
<path d="M494.107 303.27L514.433 290.471C519.053 287.561 525.171 288.944 528.086 293.573L540.416 313.155C540.906 313.933 540.217 314.922 539.317 314.732C524.358 311.543 509.411 308.357 494.457 305.176C493.544 304.983 493.331 303.782 494.126 303.281L494.107 303.27Z" fill="#CDD6AE"/>
<path d="M493.156 305.983L472.83 318.782C468.21 321.691 462.092 320.309 459.178 315.68L446.848 296.098C446.357 295.32 447.046 294.331 447.946 294.521C462.906 297.71 477.852 300.896 492.806 304.076C493.72 304.27 493.933 305.471 493.137 305.972L493.156 305.983Z" fill="#D4A473"/>
<path d="M507.369 352.67L527.695 339.871C532.315 336.962 538.433 338.345 541.348 342.974L553.678 362.555C554.168 363.333 553.479 364.323 552.579 364.133C537.62 360.944 522.673 357.758 507.719 354.577C506.805 354.384 506.593 353.182 507.388 352.682L507.369 352.67Z" fill="#CDD6AE"/>
<path d="M506.432 355.387L486.106 368.186C481.486 371.095 475.368 369.712 472.454 365.083L460.124 345.502C459.634 344.723 460.322 343.734 461.222 343.924C476.182 347.113 491.128 350.299 506.083 353.48C506.996 353.673 507.209 354.874 506.413 355.375L506.432 355.387Z" fill="#D4A473"/>
<path d="M549.256 390.853L569.582 378.054C574.202 375.145 580.32 376.528 583.235 381.156L595.565 400.738C596.055 401.516 595.366 402.506 594.466 402.316C579.506 399.127 564.56 395.941 549.606 392.76C548.692 392.567 548.48 391.365 549.275 390.865L549.256 390.853Z" fill="#CDD6AE"/>
<path d="M548.305 393.567L527.979 406.365C523.359 409.275 517.241 407.892 514.327 403.263L501.997 383.682C501.507 382.903 502.195 381.914 503.095 382.104C518.055 385.293 533.001 388.479 547.956 391.66C548.869 391.853 549.082 393.054 548.286 393.555L548.305 393.567Z" fill="#D4A473"/>
<path d="M562.518 440.253L582.844 427.454C587.464 424.545 593.582 425.928 596.497 430.557L608.827 450.138C609.317 450.917 608.628 451.906 607.728 451.716C592.768 448.527 577.822 445.341 562.868 442.16C561.954 441.967 561.742 440.766 562.537 440.265L562.518 440.253Z" fill="#CDD6AE"/>
<path d="M561.582 442.97L541.256 455.769C536.635 458.678 530.517 457.295 527.603 452.667L515.273 433.085C514.783 432.307 515.472 431.318 516.371 431.507C531.331 434.697 546.277 437.883 561.232 441.063C562.145 441.256 562.358 442.458 561.562 442.959L561.582 442.97Z" fill="#D4A473"/>
<path d="M604.4 478.428L624.726 465.629C629.346 462.72 635.464 464.102 638.378 468.731L650.708 488.313C651.199 489.091 650.51 490.08 649.61 489.891C634.65 486.701 619.704 483.515 604.75 480.335C603.836 480.142 603.623 478.94 604.419 478.439L604.4 478.428Z" fill="#CDD6AE"/>
<path d="M603.454 481.15L583.128 493.949C578.508 496.858 572.39 495.475 569.476 490.846L557.146 471.265C556.655 470.486 557.344 469.497 558.244 469.687C573.204 472.876 588.15 476.062 603.105 479.243C604.018 479.436 604.231 480.637 603.435 481.138L603.454 481.15Z" fill="#D4A473"/>
<path d="M617.667 527.837L637.993 515.038C642.613 512.128 648.731 513.511 651.646 518.14L663.976 537.722C664.466 538.5 663.777 539.489 662.878 539.299C647.918 536.11 632.971 532.924 618.017 529.743C617.104 529.55 616.891 528.349 617.686 527.848L617.667 527.837Z" fill="#CDD6AE"/>
<path d="M616.731 530.553L596.404 543.352C591.784 546.262 585.666 544.879 582.752 540.25L570.422 520.669C569.932 519.89 570.62 518.901 571.52 519.091C586.48 522.28 601.426 525.466 616.381 528.647C617.294 528.84 617.507 530.041 616.711 530.542L616.731 530.553Z" fill="#D4A473"/>
<path d="M659.549 566.011L679.875 553.212C684.495 550.303 690.613 551.686 693.527 556.315L705.857 575.896C706.348 576.675 705.659 577.664 704.759 577.474C689.799 574.285 674.853 571.099 659.898 567.918C658.985 567.725 658.772 566.523 659.568 566.023L659.549 566.011Z" fill="#CDD6AE"/>
<path d="M658.604 568.733L638.277 581.532C633.657 584.441 627.539 583.058 624.625 578.43L612.295 558.848C611.805 558.07 612.494 557.08 613.393 557.27C628.353 560.46 643.299 563.646 658.254 566.826C659.167 567.019 659.38 568.221 658.584 568.722L658.604 568.733Z" fill="#D4A473"/>
<path d="M672.816 615.42L693.142 602.621C697.762 599.712 703.88 601.095 706.795 605.723L719.125 625.305C719.615 626.083 718.926 627.073 718.026 626.883C703.067 623.694 688.12 620.508 673.166 617.327C672.252 617.134 672.04 615.932 672.835 615.431L672.816 615.42Z" fill="#CDD6AE"/>
<path d="M671.874 618.128L651.548 630.927C646.928 633.836 640.81 632.454 637.896 627.825L625.566 608.243C625.075 607.465 625.764 606.476 626.664 606.666C641.624 609.855 656.57 613.041 671.524 616.221C672.438 616.415 672.651 617.616 671.855 618.117L671.874 618.128Z" fill="#D4A473"/>
<path d="M714.698 653.594L735.024 640.796C739.644 637.886 745.762 639.269 748.677 643.898L761.006 663.479C761.497 664.258 760.808 665.247 759.908 665.057C744.948 661.868 730.002 658.682 715.048 655.501C714.134 655.308 713.921 654.107 714.717 653.606L714.698 653.594Z" fill="#CDD6AE"/>
<path d="M713.752 656.316L693.426 669.115C688.806 672.025 682.688 670.642 679.774 666.013L667.444 646.431C666.954 645.653 667.642 644.664 668.542 644.854C683.502 648.043 698.448 651.229 713.403 654.41C714.316 654.603 714.529 655.804 713.733 656.305L713.752 656.316Z" fill="#D4A473"/>
<path d="M727.965 703.003L748.291 690.204C752.911 687.295 759.029 688.678 761.944 693.307L774.274 712.888C774.764 713.667 774.075 714.656 773.175 714.466C758.215 711.277 743.269 708.091 728.315 704.91C727.401 704.717 727.189 703.516 727.984 703.015L727.965 703.003Z" fill="#CDD6AE"/>
<path d="M727.023 705.712L706.697 718.51C702.077 721.42 695.959 720.037 693.044 715.408L680.715 695.827C680.224 695.048 680.913 694.059 681.813 694.249C696.773 697.438 711.719 700.624 726.673 703.805C727.587 703.998 727.8 705.199 727.004 705.7L727.023 705.712Z" fill="#D4A473"/>
<path d="M533.109 214.152L553.436 201.354C558.056 198.444 564.174 199.827 567.088 204.456L579.418 224.038C579.908 224.816 579.22 225.805 578.32 225.615C563.36 222.426 548.414 219.24 533.459 216.059C532.546 215.866 532.333 214.665 533.129 214.164L533.109 214.152Z" fill="#CDD6AE"/>
<path d="M532.173 216.869L511.847 229.668C507.227 232.578 501.109 231.195 498.194 226.566L485.87 206.993C485.379 206.214 486.068 205.225 486.968 205.415C501.928 208.604 516.874 211.79 531.828 214.971C532.742 215.164 532.955 216.365 532.159 216.866L532.173 216.869Z" fill="#D4A473"/>
<path d="M574.988 252.341L595.314 239.542C599.935 236.632 606.052 238.015 608.967 242.644L621.297 262.226C621.787 263.004 621.098 263.993 620.199 263.803C605.239 260.614 590.293 257.428 575.338 254.247C574.425 254.054 574.212 252.853 575.007 252.352L574.988 252.341Z" fill="#CDD6AE"/>
<path d="M574.046 255.049L553.72 267.848C549.1 270.757 542.982 269.374 540.068 264.745L527.738 245.164C527.248 244.385 527.936 243.396 528.836 243.586C543.796 246.775 558.742 249.961 573.697 253.142C574.61 253.335 574.823 254.536 574.027 255.037L574.046 255.049Z" fill="#D4A473"/>
<path d="M588.259 301.736L608.585 288.937C613.205 286.028 619.323 287.411 622.237 292.039L634.567 311.621C635.057 312.399 634.369 313.389 633.469 313.199C618.509 310.009 603.563 306.823 588.608 303.643C587.695 303.45 587.482 302.248 588.278 301.747L588.259 301.736Z" fill="#CDD6AE"/>
<path d="M587.322 304.453L566.996 317.252C562.376 320.161 556.258 318.778 553.343 314.149L541.013 294.568C540.523 293.789 541.212 292.8 542.112 292.99C557.072 296.179 572.018 299.365 586.972 302.546C587.886 302.739 588.098 303.94 587.303 304.441L587.322 304.453Z" fill="#D4A473"/>
<path d="M630.137 339.924L650.463 327.125C655.084 324.216 661.201 325.599 664.116 330.228L676.446 349.809C676.936 350.587 676.247 351.577 675.348 351.387C660.388 348.198 645.442 345.012 630.487 341.831C629.574 341.638 629.361 340.436 630.156 339.936L630.137 339.924Z" fill="#CDD6AE"/>
<path d="M629.195 342.632L608.869 355.431C604.249 358.34 598.131 356.957 595.217 352.329L582.887 332.747C582.396 331.969 583.085 330.979 583.985 331.169C598.945 334.359 613.891 337.545 628.846 340.725C629.759 340.918 629.972 342.12 629.176 342.621L629.195 342.632Z" fill="#D4A473"/>
<path d="M643.408 389.319L663.734 376.52C668.354 373.611 674.472 374.994 677.386 379.623L689.716 399.204C690.206 399.983 689.518 400.972 688.618 400.782C673.658 397.593 658.712 394.407 643.757 391.226C642.844 391.033 642.631 389.832 643.427 389.331L643.408 389.319Z" fill="#CDD6AE"/>
<path d="M642.471 392.036L622.145 404.835C617.525 407.744 611.407 406.361 608.492 401.732L596.162 382.151C595.672 381.373 596.361 380.383 597.26 380.573C612.22 383.762 627.167 386.949 642.121 390.129C643.034 390.322 643.247 391.524 642.452 392.024L642.471 392.036Z" fill="#D4A473"/>
<path d="M685.281 427.499L705.607 414.7C710.227 411.791 716.345 413.174 719.26 417.802L731.59 437.384C732.08 438.162 731.391 439.151 730.492 438.962C715.532 435.772 700.585 432.586 685.631 429.406C684.718 429.213 684.505 428.011 685.3 427.51L685.281 427.499Z" fill="#CDD6AE"/>
<path d="M684.345 430.215L664.018 443.014C659.398 445.924 653.28 444.541 650.366 439.912L638.036 420.33C637.546 419.552 638.235 418.563 639.134 418.753C654.094 421.942 669.04 425.128 683.995 428.309C684.908 428.502 685.121 429.703 684.325 430.204L684.345 430.215Z" fill="#D4A473"/>
<path d="M698.556 476.902L718.883 464.104C723.503 461.194 729.621 462.577 732.535 467.206L744.865 486.787C745.355 487.566 744.667 488.555 743.767 488.365C728.807 485.176 713.861 481.99 698.906 478.809C697.993 478.616 697.78 477.415 698.576 476.914L698.556 476.902Z" fill="#CDD6AE"/>
<path d="M697.62 479.619L677.294 492.418C672.674 495.327 666.556 493.944 663.641 489.316L651.311 469.734C650.821 468.956 651.51 467.967 652.41 468.157C667.37 471.346 682.316 474.532 697.27 477.712C698.184 477.905 698.396 479.107 697.601 479.608L697.62 479.619Z" fill="#D4A473"/>
<path d="M740.43 515.082L760.756 502.283C765.376 499.374 771.494 500.757 774.409 505.386L786.739 524.967C787.229 525.746 786.54 526.735 785.64 526.545C770.681 523.356 755.734 520.17 740.78 516.989C739.866 516.796 739.654 515.594 740.449 515.094L740.43 515.082Z" fill="#CDD6AE"/>
<path d="M739.493 517.799L719.167 530.598C714.547 533.507 708.429 532.124 705.515 527.495L693.185 507.914C692.695 507.135 693.383 506.146 694.283 506.336C709.243 509.525 724.189 512.711 739.144 515.892C740.057 516.085 740.27 517.286 739.474 517.787L739.493 517.799Z" fill="#D4A473"/>
<path d="M753.706 564.486L774.032 551.687C778.652 548.778 784.77 550.16 787.684 554.789L800.014 574.371C800.504 575.149 799.816 576.138 798.916 575.948C783.956 572.759 769.01 569.573 754.055 566.393C753.142 566.2 752.929 564.998 753.725 564.497L753.706 564.486Z" fill="#CDD6AE"/>
<path d="M752.764 567.194L732.438 579.993C727.817 582.902 721.7 581.519 718.785 576.891L706.455 557.309C705.965 556.531 706.654 555.541 707.553 555.731C722.513 558.921 737.459 562.107 752.414 565.287C753.327 565.48 753.54 566.682 752.745 567.182L752.764 567.194Z" fill="#D4A473"/>
<path d="M795.579 602.665L815.905 589.867C820.526 586.957 826.643 588.34 829.558 592.969L841.888 612.55C842.378 613.329 841.689 614.318 840.79 614.128C825.83 610.939 810.884 607.753 795.929 604.572C795.016 604.379 794.803 603.178 795.598 602.677L795.579 602.665Z" fill="#CDD6AE"/>
<path d="M794.643 605.382L774.317 618.181C769.696 621.09 763.578 619.707 760.664 615.079L748.334 595.497C747.844 594.719 748.533 593.729 749.432 593.919C764.392 597.109 779.338 600.295 794.293 603.475C795.206 603.668 795.419 604.87 794.624 605.37L794.643 605.382Z" fill="#D4A473"/>
<path d="M808.855 652.069L829.181 639.27C833.801 636.361 839.919 637.744 842.833 642.373L855.163 661.954C855.653 662.733 854.965 663.722 854.065 663.532C839.105 660.343 824.159 657.157 809.204 653.976C808.291 653.783 808.078 652.581 808.874 652.081L808.855 652.069Z" fill="#CDD6AE"/>
<path d="M807.913 654.777L787.587 667.576C782.966 670.486 776.849 669.103 773.934 664.474L761.604 644.893C761.114 644.114 761.803 643.125 762.702 643.315C777.662 646.504 792.608 649.69 807.563 652.871C808.476 653.064 808.689 654.265 807.894 654.766L807.913 654.777Z" fill="#D4A473"/>
<path d="M613.991 163.224L634.317 150.425C638.937 147.515 645.055 148.898 647.97 153.527L660.299 173.109C660.79 173.887 660.101 174.876 659.201 174.686C644.241 171.497 629.295 168.311 614.341 165.13C613.427 164.937 613.214 163.736 614.01 163.235L613.991 163.224Z" fill="#CDD6AE"/>
<path d="M613.054 165.94L592.728 178.739C588.108 181.649 581.99 180.266 579.076 175.637L566.751 156.064C566.261 155.285 566.95 154.296 567.849 154.486C582.809 157.675 597.755 160.861 612.71 164.042C613.623 164.235 613.836 165.436 613.041 165.937L613.054 165.94Z" fill="#D4A473"/>
<path d="M655.87 201.412L676.196 188.613C680.816 185.704 686.934 187.086 689.848 191.715L702.178 211.297C702.669 212.075 701.98 213.064 701.08 212.874C686.12 209.685 671.174 206.499 656.22 203.318C655.306 203.125 655.093 201.924 655.889 201.423L655.87 201.412Z" fill="#CDD6AE"/>
<path d="M654.928 204.12L634.602 216.919C629.981 219.828 623.864 218.445 620.949 213.816L608.619 194.235C608.129 193.456 608.818 192.467 609.717 192.657C624.677 195.846 639.623 199.032 654.578 202.213C655.491 202.406 655.704 203.608 654.909 204.108L654.928 204.12Z" fill="#D4A473"/>
<path d="M669.14 250.807L689.466 238.008C694.086 235.099 700.204 236.482 703.119 241.11L715.449 260.692C715.939 261.47 715.25 262.46 714.35 262.27C699.391 259.081 684.444 255.894 669.49 252.714C668.576 252.521 668.364 251.319 669.159 250.819L669.14 250.807Z" fill="#CDD6AE"/>
<path d="M668.203 253.524L647.877 266.323C643.257 269.232 637.139 267.849 634.225 263.22L621.895 243.639C621.405 242.86 622.093 241.871 622.993 242.061C637.953 245.25 652.899 248.436 667.854 251.617C668.767 251.81 668.98 253.011 668.184 253.512L668.203 253.524Z" fill="#D4A473"/>
<path d="M711.019 288.995L731.345 276.196C735.965 273.287 742.083 274.67 744.997 279.299L757.327 298.88C757.818 299.659 757.129 300.648 756.229 300.458C741.269 297.269 726.323 294.083 711.368 290.902C710.455 290.709 710.242 289.508 711.038 289.007L711.019 288.995Z" fill="#CDD6AE"/>
<path d="M710.077 291.703L689.751 304.502C685.13 307.411 679.013 306.028 676.098 301.4L663.768 281.818C663.278 281.04 663.967 280.051 664.866 280.24C679.826 283.43 694.772 286.616 709.727 289.796C710.64 289.989 710.853 291.191 710.058 291.692L710.077 291.703Z" fill="#D4A473"/>
<path d="M724.289 338.39L744.615 325.591C749.235 322.682 755.353 324.065 758.268 328.694L770.598 348.275C771.088 349.054 770.399 350.043 769.499 349.853C754.539 346.664 739.593 343.478 724.639 340.297C723.725 340.104 723.512 338.903 724.308 338.402L724.289 338.39Z" fill="#CDD6AE"/>
<path d="M723.352 341.107L703.026 353.906C698.406 356.815 692.288 355.432 689.374 350.804L677.044 331.222C676.553 330.444 677.242 329.454 678.142 329.644C693.102 332.833 708.048 336.02 723.003 339.2C723.916 339.393 724.129 340.595 723.333 341.095L723.352 341.107Z" fill="#D4A473"/>
<path d="M766.162 376.57L786.488 363.771C791.109 360.862 797.226 362.245 800.141 366.873L812.471 386.455C812.961 387.233 812.272 388.223 811.373 388.033C796.413 384.843 781.467 381.657 766.512 378.477C765.599 378.284 765.386 377.082 766.181 376.581L766.162 376.57Z" fill="#CDD6AE"/>
<path d="M765.226 379.287L744.9 392.085C740.279 394.995 734.162 393.612 731.247 388.983L718.917 369.402C718.427 368.623 719.116 367.634 720.015 367.824C734.975 371.013 749.921 374.199 764.876 377.38C765.789 377.573 766.002 378.774 765.207 379.275L765.226 379.287Z" fill="#D4A473"/>
<path d="M779.438 425.973L799.764 413.175C804.384 410.265 810.502 411.648 813.417 416.277L825.746 435.858C826.237 436.637 825.548 437.626 824.648 437.436C809.688 434.247 794.742 431.061 779.788 427.88C778.874 427.687 778.661 426.486 779.457 425.985L779.438 425.973Z" fill="#CDD6AE"/>
<path d="M778.502 428.69L758.175 441.489C753.555 444.398 747.437 443.016 744.523 438.387L732.193 418.805C731.703 418.027 732.391 417.038 733.291 417.228C748.251 420.417 763.197 423.603 778.152 426.783C779.065 426.977 779.278 428.178 778.482 428.679L778.502 428.69Z" fill="#D4A473"/>
<path d="M821.311 464.153L841.637 451.354C846.258 448.445 852.375 449.828 855.29 454.457L867.62 474.038C868.11 474.817 867.421 475.806 866.522 475.616C851.562 472.427 836.616 469.241 821.661 466.06C820.748 465.867 820.535 464.666 821.33 464.165L821.311 464.153Z" fill="#CDD6AE"/>
<path d="M820.375 466.87L800.049 479.669C795.428 482.578 789.311 481.195 786.396 476.566L774.066 456.985C773.576 456.206 774.265 455.217 775.164 455.407C790.124 458.596 805.07 461.782 820.025 464.963C820.938 465.156 821.151 466.357 820.356 466.858L820.375 466.87Z" fill="#D4A473"/>
<path d="M834.587 513.557L854.913 500.758C859.533 497.849 865.651 499.232 868.566 503.86L880.896 523.442C881.386 524.22 880.697 525.209 879.797 525.02C864.838 521.83 849.891 518.644 834.937 515.464C834.023 515.271 833.811 514.069 834.606 513.568L834.587 513.557Z" fill="#CDD6AE"/>
<path d="M833.645 516.265L813.319 529.064C808.699 531.973 802.581 530.59 799.666 525.962L787.336 506.38C786.846 505.602 787.535 504.612 788.435 504.802C803.395 507.992 818.341 511.178 833.295 514.358C834.209 514.551 834.421 515.753 833.626 516.254L833.645 516.265Z" fill="#D4A473"/>
<path d="M876.46 551.736L896.787 538.938C901.407 536.028 907.525 537.411 910.439 542.04L922.769 561.621C923.259 562.4 922.571 563.389 921.671 563.199C906.711 560.01 891.765 556.824 876.81 553.643C875.897 553.45 875.684 552.249 876.48 551.748L876.46 551.736Z" fill="#CDD6AE"/>
<path d="M875.524 554.453L855.198 567.252C850.577 570.161 844.46 568.778 841.545 564.149L829.215 544.568C828.725 543.79 829.414 542.8 830.313 542.99C845.273 546.179 860.22 549.365 875.174 552.546C876.087 552.739 876.3 553.941 875.505 554.441L875.524 554.453Z" fill="#D4A473"/>
<path d="M889.736 601.14L910.062 588.341C914.682 585.432 920.8 586.815 923.715 591.444L936.045 611.025C936.535 611.804 935.846 612.793 934.946 612.603C919.986 609.414 905.04 606.228 890.086 603.047C889.172 602.854 888.96 601.652 889.755 601.152L889.736 601.14Z" fill="#CDD6AE"/>
<path d="M888.794 603.849L868.468 616.647C863.848 619.557 857.73 618.174 854.815 613.545L842.486 593.964C841.995 593.185 842.684 592.196 843.584 592.386C858.544 595.575 873.49 598.761 888.444 601.942C889.358 602.135 889.571 603.336 888.775 603.837L888.794 603.849Z" fill="#D4A473"/>
<path d="M694.881 112.289L715.207 99.4903C719.827 96.5809 725.945 97.9639 728.86 102.593L741.19 122.174C741.68 122.953 740.991 123.942 740.091 123.752C725.131 120.563 710.185 117.377 695.231 114.196C694.317 114.003 694.105 112.802 694.9 112.301L694.881 112.289Z" fill="#CDD6AE"/>
<path d="M693.936 115.012L673.61 127.81C668.989 130.72 662.872 129.337 659.957 124.708L647.632 105.135C647.142 104.356 647.831 103.367 648.73 103.557C663.69 106.746 678.637 109.932 693.591 113.113C694.504 113.306 694.717 114.508 693.922 115.008L693.936 115.012Z" fill="#D4A473"/>
<path d="M736.759 150.477L757.085 137.679C761.706 134.769 767.823 136.152 770.738 140.781L783.068 160.362C783.558 161.141 782.869 162.13 781.97 161.94C767.01 158.751 752.064 155.565 737.109 152.384C736.196 152.191 735.983 150.99 736.778 150.489L736.759 150.477Z" fill="#CDD6AE"/>
<path d="M735.817 153.186L715.491 165.985C710.871 168.894 704.753 167.511 701.839 162.882L689.509 143.301C689.019 142.522 689.707 141.533 690.607 141.723C705.567 144.912 720.513 148.098 735.468 151.279C736.381 151.472 736.594 152.673 735.798 153.174L735.817 153.186Z" fill="#D4A473"/>
<path d="M750.03 199.872L770.356 187.074C774.976 184.164 781.094 185.547 784.009 190.176L796.339 209.757C796.829 210.536 796.14 211.525 795.24 211.335C780.28 208.146 765.334 204.96 750.38 201.779C749.466 201.586 749.253 200.385 750.049 199.884L750.03 199.872Z" fill="#CDD6AE"/>
<path d="M749.085 202.595L728.759 215.394C724.138 218.303 718.021 216.92 715.106 212.291L702.776 192.71C702.286 191.931 702.975 190.942 703.874 191.132C718.834 194.321 733.78 197.507 748.735 200.688C749.648 200.881 749.861 202.082 749.066 202.583L749.085 202.595Z" fill="#D4A473"/>
<path d="M791.908 238.061L812.234 225.262C816.855 222.353 822.972 223.736 825.887 228.364L838.217 247.946C838.707 248.724 838.018 249.714 837.119 249.524C822.159 246.334 807.213 243.148 792.258 239.968C791.345 239.775 791.132 238.573 791.927 238.072L791.908 238.061Z" fill="#CDD6AE"/>
<path d="M790.966 240.769L770.64 253.568C766.02 256.477 759.902 255.094 756.988 250.465L744.658 230.884C744.167 230.105 744.856 229.116 745.756 229.306C760.716 232.495 775.662 235.681 790.617 238.862C791.53 239.055 791.743 240.256 790.947 240.757L790.966 240.769Z" fill="#D4A473"/>
<path d="M805.179 287.456L825.505 274.657C830.125 271.748 836.243 273.13 839.157 277.759L851.487 297.341C851.978 298.119 851.289 299.108 850.389 298.918C835.429 295.729 820.483 292.543 805.529 289.363C804.615 289.17 804.402 287.968 805.198 287.467L805.179 287.456Z" fill="#CDD6AE"/>
<path d="M804.234 290.178L783.908 302.977C779.287 305.886 773.17 304.503 770.255 299.875L757.925 280.293C757.435 279.515 758.124 278.525 759.023 278.715C773.983 281.905 788.929 285.091 803.884 288.271C804.797 288.464 805.01 289.666 804.214 290.167L804.234 290.178Z" fill="#D4A473"/>
<path d="M847.052 325.636L867.378 312.837C871.998 309.928 878.116 311.31 881.031 315.939L893.361 335.521C893.851 336.299 893.162 337.288 892.263 337.098C877.303 333.909 862.356 330.723 847.402 327.542C846.489 327.349 846.276 326.148 847.071 325.647L847.052 325.636Z" fill="#CDD6AE"/>
<path d="M846.116 328.352L825.789 341.151C821.169 344.06 815.051 342.678 812.137 338.049L799.807 318.467C799.317 317.689 800.006 316.7 800.905 316.89C815.865 320.079 830.811 323.265 845.766 326.445C846.679 326.639 846.892 327.84 846.096 328.341L846.116 328.352Z" fill="#D4A473"/>
<path d="M860.328 375.039L880.654 362.24C885.274 359.331 891.392 360.714 894.307 365.343L906.637 384.924C907.127 385.703 906.438 386.692 905.538 386.502C890.578 383.313 875.632 380.127 860.678 376.946C859.764 376.753 859.552 375.552 860.347 375.051L860.328 375.039Z" fill="#CDD6AE"/>
<path d="M859.383 377.761L839.057 390.56C834.436 393.47 828.319 392.087 825.404 387.458L813.074 367.876C812.584 367.098 813.273 366.109 814.172 366.299C829.132 369.488 844.078 372.674 859.033 375.855C859.946 376.048 860.159 377.249 859.364 377.75L859.383 377.761Z" fill="#D4A473"/>
<path d="M902.201 413.219L922.527 400.42C927.147 397.511 933.265 398.894 936.18 403.522L948.51 423.104C949 423.882 948.311 424.872 947.411 424.682C932.452 421.493 917.505 418.306 902.551 415.126C901.637 414.933 901.425 413.731 902.22 413.23L902.201 413.219Z" fill="#CDD6AE"/>
<path d="M901.264 415.936L880.938 428.734C876.318 431.644 870.2 430.261 867.286 425.632L854.956 406.051C854.466 405.272 855.154 404.283 856.054 404.473C871.014 407.662 885.96 410.848 900.915 414.029C901.828 414.222 902.041 415.423 901.245 415.924L901.264 415.936Z" fill="#D4A473"/>
<path d="M915.477 462.622L935.803 449.824C940.423 446.914 946.541 448.297 949.456 452.926L961.786 472.507C962.276 473.286 961.587 474.275 960.687 474.085C945.727 470.896 930.781 467.71 915.827 464.529C914.913 464.336 914.7 463.135 915.496 462.634L915.477 462.622Z" fill="#CDD6AE"/>
<path d="M914.526 465.336L894.2 478.135C889.58 481.044 883.462 479.661 880.548 475.033L868.218 455.451C867.728 454.673 868.416 453.684 869.316 453.873C884.276 457.063 899.222 460.249 914.177 463.429C915.09 463.622 915.303 464.824 914.507 465.325L914.526 465.336Z" fill="#D4A473"/>
<path d="M957.35 500.802L977.676 488.003C982.297 485.094 988.414 486.477 991.329 491.106L1003.66 510.687C1004.15 511.466 1003.46 512.455 1002.56 512.265C987.601 509.076 972.655 505.89 957.7 502.709C956.787 502.516 956.574 501.315 957.369 500.814L957.35 500.802Z" fill="#CDD6AE"/>
<path d="M956.413 503.519L936.087 516.318C931.467 519.227 925.349 517.844 922.435 513.215L910.105 493.634C909.614 492.855 910.303 491.866 911.203 492.056C926.163 495.245 941.109 498.431 956.064 501.612C956.977 501.805 957.19 503.006 956.394 503.507L956.413 503.519Z" fill="#D4A473"/>
<path d="M970.626 550.206L990.952 537.407C995.572 534.497 1001.69 535.88 1004.6 540.509L1016.93 560.091C1017.42 560.869 1016.74 561.858 1015.84 561.668C1000.88 558.479 985.93 555.293 970.976 552.112C970.063 551.919 969.85 550.718 970.645 550.217L970.626 550.206Z" fill="#CDD6AE"/>
<path d="M969.676 552.919L949.35 565.718C944.729 568.628 938.611 567.245 935.697 562.616L923.367 543.034C922.877 542.256 923.566 541.267 924.465 541.457C939.425 544.646 954.371 547.832 969.326 551.013C970.239 551.206 970.452 552.407 969.656 552.908L969.676 552.919Z" fill="#D4A473"/>
<path d="M775.762 61.3603L796.088 48.5615C800.708 45.6522 806.826 47.0352 809.741 51.664L822.07 71.2454C822.561 72.0239 821.872 73.013 820.972 72.8231C806.012 69.6339 791.066 66.448 776.112 63.2672C775.198 63.0742 774.985 61.8728 775.781 61.372L775.762 61.3603Z" fill="#CDD6AE"/>
<path d="M774.825 64.0772L754.499 76.8761C749.879 79.7854 743.761 78.4025 740.847 73.7737L728.522 54.2007C728.032 53.4222 728.721 52.433 729.62 52.6229C744.58 55.8121 759.526 58.9982 774.481 62.1789C775.394 62.3719 775.607 63.5732 774.812 64.0741L774.825 64.0772Z" fill="#D4A473"/>
<path d="M817.641 99.5485L837.967 86.7497C842.587 83.8403 848.705 85.2232 851.619 89.852L863.949 109.433C864.44 110.212 863.751 111.201 862.851 111.011C847.891 107.822 832.945 104.636 817.991 101.455C817.077 101.262 816.864 100.061 817.66 99.5601L817.641 99.5485Z" fill="#CDD6AE"/>
<path d="M816.699 102.257L796.373 115.056C791.752 117.965 785.635 116.582 782.72 111.953L770.39 92.3718C769.9 91.5932 770.589 90.6041 771.488 90.794C786.448 93.9831 801.394 97.1692 816.349 100.35C817.262 100.543 817.475 101.744 816.68 102.245L816.699 102.257Z" fill="#D4A473"/>
<path d="M830.911 148.944L851.237 136.145C855.857 133.236 861.975 134.619 864.889 139.247L877.219 158.829C877.71 159.607 877.021 160.596 876.121 160.407C861.161 157.217 846.215 154.031 831.26 150.851C830.347 150.658 830.134 149.456 830.93 148.955L830.911 148.944Z" fill="#CDD6AE"/>
<path d="M829.974 151.661L809.648 164.459C805.028 167.369 798.91 165.986 795.996 161.357L783.666 141.776C783.176 140.997 783.864 140.008 784.764 140.198C799.724 143.387 814.67 146.573 829.625 149.754C830.538 149.947 830.751 151.148 829.955 151.649L829.974 151.661Z" fill="#D4A473"/>
<path d="M872.79 187.132L893.116 174.333C897.736 171.424 903.854 172.807 906.768 177.435L919.098 197.017C919.589 197.795 918.9 198.785 918 198.595C903.04 195.405 888.094 192.219 873.139 189.039C872.226 188.846 872.013 187.644 872.809 187.143L872.79 187.132Z" fill="#CDD6AE"/>
<path d="M871.848 189.84L851.522 202.639C846.901 205.548 840.784 204.165 837.869 199.536L825.539 179.955C825.049 179.176 825.738 178.187 826.637 178.377C841.597 181.566 856.543 184.752 871.498 187.933C872.411 188.126 872.624 189.328 871.829 189.828L871.848 189.84Z" fill="#D4A473"/>
<path d="M886.06 236.527L906.386 223.728C911.006 220.819 917.124 222.202 920.039 226.831L932.369 246.412C932.859 247.191 932.17 248.18 931.27 247.99C916.31 244.801 901.364 241.615 886.41 238.434C885.496 238.241 885.284 237.039 886.079 236.539L886.06 236.527Z" fill="#CDD6AE"/>
<path d="M885.123 239.244L864.797 252.043C860.177 254.952 854.059 253.569 851.145 248.94L838.815 229.359C838.324 228.58 839.013 227.591 839.913 227.781C854.873 230.97 869.819 234.156 884.774 237.337C885.687 237.53 885.9 238.731 885.104 239.232L885.123 239.244Z" fill="#D4A473"/>
<path d="M927.933 274.707L948.259 261.908C952.88 258.999 958.997 260.381 961.912 265.01L974.242 284.592C974.732 285.37 974.043 286.359 973.144 286.169C958.184 282.98 943.238 279.794 928.283 276.614C927.37 276.42 927.157 275.219 927.952 274.718L927.933 274.707Z" fill="#CDD6AE"/>
<path d="M926.997 277.423L906.671 290.222C902.05 293.131 895.933 291.749 893.018 287.12L880.688 267.538C880.198 266.76 880.887 265.771 881.786 265.961C896.746 269.15 911.692 272.336 926.647 275.517C927.56 275.71 927.773 276.911 926.978 277.412L926.997 277.423Z" fill="#D4A473"/>
<path d="M941.209 324.11L961.535 311.311C966.155 308.402 972.273 309.785 975.187 314.414L987.517 333.995C988.008 334.774 987.319 335.763 986.419 335.573C971.459 332.384 956.513 329.198 941.559 326.017C940.645 325.824 940.432 324.623 941.228 324.122L941.209 324.11Z" fill="#CDD6AE"/>
<path d="M940.273 326.827L919.946 339.626C915.326 342.535 909.208 341.152 906.294 336.524L893.964 316.942C893.474 316.164 894.162 315.174 895.062 315.364C910.022 318.554 924.968 321.74 939.923 324.92C940.836 325.113 941.049 326.315 940.253 326.816L940.273 326.827Z" fill="#D4A473"/>
<path d="M983.082 362.29L1003.41 349.491C1008.03 346.582 1014.15 347.965 1017.06 352.593L1029.39 372.175C1029.88 372.953 1029.19 373.943 1028.29 373.753C1013.33 370.564 998.387 367.377 983.432 364.197C982.519 364.004 982.306 362.802 983.101 362.302L983.082 362.29Z" fill="#CDD6AE"/>
<path d="M982.146 365.007L961.82 377.805C957.199 380.715 951.082 379.332 948.167 374.703L935.837 355.122C935.347 354.343 936.036 353.354 936.935 353.544C951.895 356.733 966.841 359.919 981.796 363.1C982.709 363.293 982.922 364.494 982.127 364.995L982.146 365.007Z" fill="#D4A473"/>
<path d="M996.358 411.694L1016.68 398.895C1021.3 395.985 1027.42 397.368 1030.34 401.997L1042.67 421.579C1043.16 422.357 1042.47 423.346 1041.57 423.156C1026.61 419.967 1011.66 416.781 996.708 413.6C995.794 413.407 995.582 412.206 996.377 411.705L996.358 411.694Z" fill="#CDD6AE"/>
<path d="M995.416 414.402L975.09 427.201C970.47 430.11 964.352 428.727 961.437 424.098L949.107 404.517C948.617 403.739 949.306 402.749 950.206 402.939C965.165 406.128 980.112 409.314 995.066 412.495C995.98 412.688 996.192 413.889 995.397 414.39L995.416 414.402Z" fill="#D4A473"/>
<path d="M1038.23 449.873L1058.56 437.074C1063.18 434.165 1069.3 435.548 1072.21 440.177L1084.54 459.758C1085.03 460.537 1084.34 461.526 1083.44 461.336C1068.48 458.147 1053.54 454.961 1038.58 451.78C1037.67 451.587 1037.45 450.386 1038.25 449.885L1038.23 449.873Z" fill="#CDD6AE"/>
<path d="M1037.29 452.59L1016.97 465.389C1012.35 468.298 1006.23 466.915 1003.32 462.286L990.986 442.705C990.496 441.926 991.185 440.937 992.084 441.127C1007.04 444.316 1021.99 447.502 1036.94 450.683C1037.86 450.876 1038.07 452.077 1037.28 452.578L1037.29 452.59Z" fill="#D4A473"/>
<path d="M1051.51 499.277L1071.83 486.478C1076.45 483.569 1082.57 484.952 1085.49 489.58L1097.82 509.162C1098.31 509.94 1097.62 510.93 1096.72 510.74C1081.76 507.55 1066.81 504.364 1051.86 501.184C1050.94 500.991 1050.73 499.789 1051.53 499.288L1051.51 499.277Z" fill="#CDD6AE"/>
<path d="M1050.57 501.985L1030.24 514.784C1025.62 517.694 1019.5 516.311 1016.59 511.682L1004.26 492.1C1003.77 491.322 1004.46 490.333 1005.35 490.523C1020.31 493.712 1035.26 496.898 1050.22 500.079C1051.13 500.272 1051.34 501.473 1050.55 501.974L1050.57 501.985Z" fill="#D4A473"/>
<path d="M856.643 10.4314L876.969 -2.36741C881.59 -5.27672 887.707 -3.89379 890.622 0.735008L902.952 20.3164C903.442 21.0949 902.753 22.0841 901.854 21.8942C886.894 18.705 871.948 15.519 856.993 12.3383C856.08 12.1452 855.867 10.9439 856.662 10.443L856.643 10.4314Z" fill="#CDD6AE"/>
<path d="M855.707 13.1483L835.381 25.9471C830.76 28.8565 824.643 27.4735 821.728 22.8448L809.403 3.27178C808.913 2.49326 809.602 1.50408 810.501 1.69398C825.461 4.88316 840.408 8.06921 855.362 11.2499C856.275 11.443 856.488 12.6443 855.693 13.1452L855.707 13.1483Z" fill="#D4A473"/>
<path d="M898.53 48.6144L918.856 35.8156C923.476 32.9063 929.594 34.2892 932.509 38.918L944.839 58.4994C945.329 59.2779 944.64 60.2671 943.741 60.0772C928.781 56.888 913.835 53.702 898.88 50.5213C897.967 50.3282 897.754 49.1269 898.549 48.626L898.53 48.6144Z" fill="#CDD6AE"/>
<path d="M897.58 51.3278L877.254 64.1267C872.634 67.036 866.516 65.653 863.601 61.0242L851.271 41.4428C850.781 40.6643 851.47 39.6752 852.37 39.8651C867.329 43.0542 882.276 46.2403 897.23 49.421C898.144 49.614 898.356 50.8154 897.561 51.3163L897.58 51.3278Z" fill="#D4A473"/>
<path d="M911.792 98.0148L932.118 85.216C936.738 82.3067 942.856 83.6896 945.771 88.3184L958.101 107.9C958.591 108.678 957.902 109.667 957.003 109.478C942.043 106.288 927.096 103.102 912.142 99.9216C911.229 99.7286 911.016 98.5273 911.811 98.0264L911.792 98.0148Z" fill="#CDD6AE"/>
<path d="M910.856 100.732L890.53 113.53C885.909 116.44 879.792 115.057 876.877 110.428L864.547 90.8466C864.057 90.0681 864.746 89.0789 865.645 89.2688C880.605 92.458 895.551 95.644 910.506 98.8248C911.419 99.0178 911.632 100.219 910.837 100.72L910.856 100.732Z" fill="#D4A473"/>
<path d="M953.679 136.198L974.005 123.399C978.626 120.49 984.743 121.872 987.658 126.501L999.988 146.083C1000.48 146.861 999.789 147.85 998.89 147.66C983.93 144.471 968.984 141.285 954.029 138.105C953.116 137.911 952.903 136.71 953.698 136.209L953.679 136.198Z" fill="#CDD6AE"/>
<path d="M952.729 138.911L932.403 151.71C927.783 154.619 921.665 153.236 918.75 148.607L906.42 129.026C905.93 128.248 906.619 127.258 907.518 127.448C922.478 130.638 937.425 133.824 952.379 137.004C953.293 137.197 953.505 138.399 952.71 138.9L952.729 138.911Z" fill="#D4A473"/>
<path d="M966.941 185.598L987.267 172.799C991.888 169.89 998.005 171.273 1000.92 175.902L1013.25 195.483C1013.74 196.262 1013.05 197.251 1012.15 197.061C997.192 193.872 982.246 190.686 967.291 187.505C966.378 187.312 966.165 186.11 966.96 185.61L966.941 185.598Z" fill="#CDD6AE"/>
<path d="M966.005 188.315L945.679 201.114C941.058 204.023 934.941 202.64 932.026 198.011L919.696 178.43C919.206 177.651 919.895 176.662 920.794 176.852C935.754 180.041 950.7 183.227 965.655 186.408C966.568 186.601 966.781 187.802 965.986 188.303L966.005 188.315Z" fill="#D4A473"/>
<path d="M1008.82 223.773L1029.15 210.974C1033.77 208.064 1039.89 209.447 1042.8 214.076L1055.13 233.657C1055.62 234.436 1054.93 235.425 1054.03 235.235C1039.07 232.046 1024.13 228.86 1009.17 225.679C1008.26 225.486 1008.05 224.285 1008.84 223.784L1008.82 223.773Z" fill="#CDD6AE"/>
<path d="M1007.88 226.494L987.552 239.293C982.931 242.203 976.814 240.82 973.899 236.191L961.569 216.609C961.079 215.831 961.768 214.842 962.667 215.032C977.627 218.221 992.574 221.407 1007.53 224.588C1008.44 224.781 1008.65 225.982 1007.86 226.483L1007.88 226.494Z" fill="#D4A473"/>
<path d="M1022.09 273.181L1042.42 260.382C1047.04 257.473 1053.15 258.856 1056.07 263.485L1068.4 283.066C1068.89 283.845 1068.2 284.834 1067.3 284.644C1052.34 281.455 1037.39 278.269 1022.44 275.088C1021.53 274.895 1021.31 273.694 1022.11 273.193L1022.09 273.181Z" fill="#CDD6AE"/>
<path d="M1021.15 275.898L1000.83 288.697C996.207 291.606 990.09 290.223 987.175 285.595L974.845 266.013C974.355 265.235 975.044 264.246 975.943 264.435C990.903 267.625 1005.85 270.811 1020.8 273.991C1021.72 274.184 1021.93 275.386 1021.13 275.887L1021.15 275.898Z" fill="#D4A473"/>
<path d="M1063.97 311.356L1084.3 298.557C1088.92 295.648 1095.04 297.03 1097.95 301.659L1110.28 321.241C1110.77 322.019 1110.08 323.008 1109.18 322.819C1094.22 319.629 1079.28 316.443 1064.32 313.263C1063.41 313.07 1063.2 311.868 1063.99 311.367L1063.97 311.356Z" fill="#CDD6AE"/>
<path d="M1063.03 314.078L1042.7 326.877C1038.08 329.786 1031.96 328.403 1029.05 323.774L1016.72 304.193C1016.23 303.414 1016.92 302.425 1017.82 302.615C1032.78 305.804 1047.72 308.99 1062.68 312.171C1063.59 312.364 1063.8 313.565 1063.01 314.066L1063.03 314.078Z" fill="#D4A473"/>
<path d="M1077.24 360.765L1097.57 347.966C1102.19 345.057 1108.3 346.439 1111.22 351.068L1123.55 370.65C1124.04 371.428 1123.35 372.417 1122.45 372.227C1107.49 369.038 1092.54 365.852 1077.59 362.671C1076.68 362.478 1076.46 361.277 1077.26 360.776L1077.24 360.765Z" fill="#CDD6AE"/>
<path d="M1076.3 363.473L1055.97 376.272C1051.35 379.181 1045.23 377.798 1042.32 373.169L1029.99 353.588C1029.5 352.81 1030.19 351.82 1031.09 352.01C1046.05 355.199 1060.99 358.385 1075.95 361.566C1076.86 361.759 1077.07 362.961 1076.28 363.461L1076.3 363.473Z" fill="#D4A473"/>
<path d="M1119.12 398.939L1139.45 386.14C1144.07 383.231 1150.18 384.614 1153.1 389.243L1165.43 408.824C1165.92 409.603 1165.23 410.592 1164.33 410.402C1149.37 407.213 1134.43 404.027 1119.47 400.846C1118.56 400.653 1118.34 399.452 1119.14 398.951L1119.12 398.939Z" fill="#CDD6AE"/>
<path d="M1118.18 401.661L1097.85 414.46C1093.23 417.369 1087.11 415.986 1084.2 411.357L1071.87 391.776C1071.38 390.998 1072.07 390.008 1072.97 390.198C1087.93 393.388 1102.87 396.573 1117.83 399.754C1118.74 399.947 1118.95 401.149 1118.16 401.649L1118.18 401.661Z" fill="#D4A473"/>
<path d="M1132.39 448.348L1152.71 435.549C1157.33 432.64 1163.45 434.023 1166.37 438.651L1178.7 458.233C1179.19 459.011 1178.5 460.001 1177.6 459.811C1162.64 456.622 1147.69 453.435 1132.74 450.255C1131.82 450.062 1131.61 448.86 1132.41 448.359L1132.39 448.348Z" fill="#CDD6AE"/>
<path d="M1131.45 451.056L1111.12 463.855C1106.5 466.765 1100.38 465.382 1097.47 460.753L1085.14 441.171C1084.65 440.393 1085.34 439.404 1086.24 439.594C1101.2 442.783 1116.14 445.969 1131.1 449.15C1132.01 449.343 1132.22 450.544 1131.43 451.045L1131.45 451.056Z" fill="#D4A473"/>
</svg>
