<svg width="314" height="21" viewBox="0 0 314 21" fill="none" xmlns="http://www.w3.org/2000/svg">
<path d="M11.0433 9.86035H18.3771C20.0442 9.86035 21.3998 11.2129 21.3998 12.883V19.9481C21.3998 20.229 21.0609 20.3725 20.8594 20.1771C17.5131 16.9193 14.1698 13.6646 10.8235 10.4099C10.6189 10.2115 10.7594 9.86645 11.0464 9.86645L11.0433 9.86035Z" fill="#A2AC80"/>
<path d="M10.3565 10.4068H3.02268C1.35563 10.4068 0 9.05426 0 7.38416V0.319072C0 0.0381776 0.338911 -0.105323 0.540422 0.0900821C3.88673 3.34785 7.22998 6.60255 10.5763 9.85727C10.7809 10.0557 10.6404 10.4007 10.3534 10.4007L10.3565 10.4068Z" fill="#D4A473"/>
<path d="M40.2257 9.86035H47.5595C49.2265 9.86035 50.5821 11.2129 50.5821 12.883V19.9481C50.5821 20.229 50.2433 20.3725 50.0417 20.1771C46.6954 16.9193 43.3522 13.6646 40.0059 10.4099C39.8013 10.2115 39.9418 9.86645 40.2288 9.86645L40.2257 9.86035Z" fill="#A2AC80"/>
<path d="M39.5422 10.4068H32.2084C30.5414 10.4068 29.1858 9.05426 29.1858 7.38416V0.319072C29.1858 0.0381776 29.5247 -0.105323 29.7262 0.0900821C33.0725 3.34785 36.4158 6.60255 39.7621 9.85727C39.9666 10.0557 39.8262 10.4007 39.5392 10.4007L39.5422 10.4068Z" fill="#D4A473"/>
<path d="M69.4088 9.86035H76.7426C78.4097 9.86035 79.7653 11.2129 79.7653 12.883V19.9481C79.7653 20.229 79.4264 20.3725 79.2248 20.1771C75.8785 16.9193 72.5353 13.6646 69.189 10.4099C68.9844 10.2115 69.1249 9.86645 69.4119 9.86645L69.4088 9.86035Z" fill="#A2AC80"/>
<path d="M68.7249 10.4068H61.3911C59.724 10.4068 58.3684 9.05426 58.3684 7.38416V0.319072C58.3684 0.0381776 58.7073 -0.105323 58.9088 0.0900821C62.2551 3.34785 65.5984 6.60255 68.9447 9.85727C69.1493 10.0557 69.0088 10.4007 68.7218 10.4007L68.7249 10.4068Z" fill="#D4A473"/>
<path d="M98.5936 9.86035H105.927C107.594 9.86035 108.95 11.2129 108.95 12.883V19.9481C108.95 20.229 108.611 20.3725 108.41 20.1771C105.063 16.9193 101.72 13.6646 98.3738 10.4099C98.1692 10.2115 98.3097 9.86645 98.5967 9.86645L98.5936 9.86035Z" fill="#A2AC80"/>
<path d="M97.9097 10.4068H90.5759C88.9089 10.4068 87.5532 9.05426 87.5532 7.38416V0.319072C87.5532 0.0381776 87.8921 -0.105323 88.0936 0.0900821C91.44 3.34785 94.7832 6.60255 98.1295 9.85727C98.3341 10.0557 98.1936 10.4007 97.9066 10.4007L97.9097 10.4068Z" fill="#D4A473"/>
<path d="M127.776 9.86035H135.11C136.777 9.86035 138.133 11.2129 138.133 12.883V19.9481C138.133 20.229 137.794 20.3725 137.592 20.1771C134.246 16.9193 130.903 13.6646 127.556 10.4099C127.352 10.2115 127.492 9.86645 127.779 9.86645L127.776 9.86035Z" fill="#A2AC80"/>
<path d="M127.093 10.4068H119.759C118.092 10.4068 116.736 9.05426 116.736 7.38416V0.319072C116.736 0.0381776 117.075 -0.105323 117.277 0.0900821C120.623 3.34785 123.966 6.60255 127.313 9.85727C127.517 10.0557 127.377 10.4007 127.09 10.4007L127.093 10.4068Z" fill="#D4A473"/>
<path d="M156.96 9.86035H164.293C165.96 9.86035 167.316 11.2129 167.316 12.883V19.9481C167.316 20.229 166.977 20.3725 166.776 20.1771C163.429 16.9193 160.086 13.6646 156.74 10.4099C156.535 10.2115 156.676 9.86645 156.963 9.86645L156.96 9.86035Z" fill="#A2AC80"/>
<path d="M156.275 10.4068H148.941C147.274 10.4068 145.919 9.05426 145.919 7.38416V0.319072C145.919 0.0381776 146.258 -0.105323 146.459 0.0900821C149.805 3.34785 153.149 6.60255 156.495 9.85727C156.7 10.0557 156.559 10.4007 156.272 10.4007L156.275 10.4068Z" fill="#D4A473"/>
<path d="M186.144 9.86035H193.478C195.145 9.86035 196.501 11.2129 196.501 12.883V19.9481C196.501 20.229 196.162 20.3725 195.96 20.1771C192.614 16.9193 189.271 13.6646 185.924 10.4099C185.72 10.2115 185.86 9.86645 186.147 9.86645L186.144 9.86035Z" fill="#A2AC80"/>
<path d="M185.46 10.4068H178.126C176.459 10.4068 175.103 9.05426 175.103 7.38416V0.319072C175.103 0.0381776 175.442 -0.105323 175.644 0.0900821C178.99 3.34785 182.333 6.60255 185.68 9.85727C185.884 10.0557 185.744 10.4007 185.457 10.4007L185.46 10.4068Z" fill="#D4A473"/>
<path d="M215.327 9.86035H222.66C224.327 9.86035 225.683 11.2129 225.683 12.883V19.9481C225.683 20.229 225.344 20.3725 225.143 20.1771C221.796 16.9193 218.453 13.6646 215.107 10.4099C214.902 10.2115 215.043 9.86645 215.33 9.86645L215.327 9.86035Z" fill="#A2AC80"/>
<path d="M214.643 10.4068H207.309C205.642 10.4068 204.287 9.05426 204.287 7.38416V0.319072C204.287 0.0381776 204.626 -0.105323 204.827 0.0900821C208.173 3.34785 211.517 6.60255 214.863 9.85727C215.067 10.0557 214.927 10.4007 214.64 10.4007L214.643 10.4068Z" fill="#D4A473"/>
<path d="M244.513 9.86035H251.846C253.513 9.86035 254.869 11.2129 254.869 12.883V19.9481C254.869 20.229 254.53 20.3725 254.329 20.1771C250.982 16.9193 247.639 13.6646 244.293 10.4099C244.088 10.2115 244.229 9.86645 244.516 9.86645L244.513 9.86035Z" fill="#A2AC80"/>
<path d="M243.825 10.4068H236.491C234.824 10.4068 233.469 9.05426 233.469 7.38416V0.319072C233.469 0.0381776 233.808 -0.105323 234.009 0.0900821C237.355 3.34785 240.699 6.60255 244.045 9.85727C244.25 10.0557 244.109 10.4007 243.822 10.4007L243.825 10.4068Z" fill="#D4A473"/>
<path d="M273.695 9.86035H281.029C282.696 9.86035 284.051 11.2129 284.051 12.883V19.9481C284.051 20.229 283.713 20.3725 283.511 20.1771C280.165 16.9193 276.821 13.6646 273.475 10.4099C273.271 10.2115 273.411 9.86645 273.698 9.86645L273.695 9.86035Z" fill="#A2AC80"/>
<path d="M273.011 10.4068H265.678C264.011 10.4068 262.655 9.05426 262.655 7.38416V0.319072C262.655 0.0381776 262.994 -0.105323 263.195 0.0900821C266.542 3.34785 269.885 6.60255 273.231 9.85727C273.436 10.0557 273.295 10.4007 273.008 10.4007L273.011 10.4068Z" fill="#D4A473"/>
<path d="M302.878 9.86035H310.212C311.879 9.86035 313.235 11.2129 313.235 12.883V19.9481C313.235 20.229 312.896 20.3725 312.694 20.1771C309.348 16.9193 306.005 13.6646 302.658 10.4099C302.454 10.2115 302.594 9.86645 302.881 9.86645L302.878 9.86035Z" fill="#A2AC80"/>
<path d="M302.194 10.4068H294.86C293.193 10.4068 291.837 9.05426 291.837 7.38416V0.319072C291.837 0.0381776 292.176 -0.105323 292.378 0.0900821C295.724 3.34785 299.067 6.60255 302.413 9.85727C302.618 10.0557 302.478 10.4007 302.191 10.4007L302.194 10.4068Z" fill="#D4A473"/>
</svg>
