<svg width="60" height="77" viewBox="0 0 60 77" fill="none" xmlns="http://www.w3.org/2000/svg">
<path d="M46.4059 41.3088L44.3714 43.8005C42.8129 45.7071 39.8783 45.7498 38.2962 43.8621C38.2796 43.8431 38.2677 43.8289 38.2535 43.81C37.7775 43.2297 37.4388 42.6162 37.1995 42.0004C35.7547 38.2534 38.507 34.1962 42.5453 34.2791H42.6353C46.8038 34.4188 48.8858 38.1848 48.9923 38.3861C50.6053 41.4249 49.4447 44.6721 49.0018 46.0648C45.224 57.9571 27.3868 70.2165 19.5589 59.4563C19.5565 59.4516 19.5518 59.4469 19.5494 59.4398C17.0269 55.3541 19.0662 50.1599 20.3547 47.647C20.4447 47.474 20.7076 47.5712 20.6602 47.7583C19.9544 50.5792 20.1534 54.5819 24.1467 56.4223C31.823 59.8685 44.5964 50.8444 46.4012 41.3041L46.4059 41.3088Z" fill="#AB7C4C"/>
<path d="M21.1672 44.8876C21.1672 44.8876 21.1648 44.8876 21.1648 44.8853C21.9678 43.7247 22.2259 42.7678 21.9417 42.0099C20.9754 39.4258 13.6946 39.1748 0.104056 41.2543C0.0424745 41.2235 -0.0214689 41.1264 0.00695317 40.8162C0.864354 40.0653 1.75017 39.2458 2.6502 38.3505C3.63077 37.3771 4.5237 36.4226 5.33373 35.4988C15.2128 36.162 19.0545 29.6368 9.67284 18.808C7.15038 15.8994 4.84108 15.4494 3.67577 12.439C3.09312 10.9374 3.0031 9.42866 3.131 8.08571C3.26127 6.72619 3.59998 5.73378 4.06184 4.54005C4.51896 3.35343 5.11108 1.89443 5.85479 0.208052C6.01348 -0.151961 6.56062 -0.012226 6.51798 0.378578C6.36166 1.89442 6.43034 3.61396 7.01536 5.37613C7.75197 7.60253 8.9907 8.936 9.85995 9.95683C11.2503 11.5887 19.2913 20.7715 17.8916 28.7462C17.5173 30.8708 16.5652 33.0214 14.8362 35.1625C14.8362 35.1625 14.8362 35.1672 14.8386 35.1649C18.1734 32.3795 22.7281 33.0972 24.4523 35.4681C26.269 37.9668 25.3121 42.8199 21.1625 44.8853H21.1696L21.1672 44.8876Z" fill="#AB7C4C"/>
<path d="M54.3951 42.1709C54.4827 42.0477 54.658 41.7991 54.9232 41.7801C55.1459 41.7612 55.3756 41.8606 55.5059 42.0856L57.9928 46.3584C60.6384 50.9983 60.3637 53.6298 58.7626 55.463C58.6299 55.6146 58.5707 55.7425 58.4665 55.8775C56.0933 58.9779 53.9829 61.5145 53.1421 62.4761C48.4761 67.81 47.6187 68.7314 46.7732 69.6125C45.8495 70.5764 44.542 71.9028 42.5999 73.3476C42.3749 73.5134 41.3043 74.3116 40.3901 74.8445C39.1134 75.5882 34.7838 78.1201 30.3168 76.3746C27.368 75.2235 24.6347 72.3149 24.2605 68.4543C23.9052 64.7689 25.7882 61.1735 29.0733 59.2716C28.6328 59.7689 27.2211 61.4837 27.1951 63.9991C27.169 66.4884 28.5072 69.1601 30.7573 70.207C33.5829 71.5215 36.7686 69.7688 39.0803 68.4945C40.7122 67.5969 42.5122 66.2018 43.4288 65.4913C44.4734 64.6812 45.2431 64.018 45.7594 63.5657C51.8252 58.272 53.5187 55.2498 55.2051 52.6089C55.6219 51.96 55.6219 51.1286 55.2098 50.4749C54.5016 49.3641 53.7958 48.2556 53.0876 47.1424C52.8034 46.6971 52.7395 46.15 52.9147 45.6526C53.2937 44.5821 53.9663 42.7749 54.3832 42.1757H54.3879L54.3951 42.1709Z" fill="#AB7C4C"/>
<path d="M52.9385 28.6586L50.3591 31.2237C50.127 31.4558 50.127 31.8324 50.3591 32.0621L52.9385 34.6272C53.1706 34.8593 53.5495 34.8593 53.784 34.6272L56.3633 32.0621C56.5954 31.83 56.5954 31.4534 56.3633 31.2237L53.784 28.6586C53.5519 28.4265 53.1729 28.4265 52.9385 28.6586Z" fill="#AB7C4C"/>
<path d="M5.6724 43.3433L2.66676 46.2661C2.53886 46.3892 2.53649 46.5906 2.66202 46.7161L5.60135 49.7028C5.72688 49.8283 5.9282 49.8307 6.05373 49.7075L9.05937 46.7848C9.18727 46.6616 9.18964 46.4603 9.06411 46.3348L6.12478 43.3481C5.99925 43.2226 5.79793 43.2202 5.6724 43.3433Z" fill="#AB7C4C"/>
<path d="M12.2947 43.4121L9.28907 46.3348C9.16117 46.458 9.15881 46.6593 9.28434 46.7848L12.2237 49.7715C12.3492 49.8971 12.5505 49.8994 12.676 49.7763L15.6817 46.8535C15.8096 46.7304 15.8119 46.529 15.6864 46.4035L12.7471 43.4168C12.6216 43.2913 12.4202 43.2889 12.2947 43.4121Z" fill="#AB7C4C"/>
<path d="M29.2249 52.4384C30.2173 51.0931 31.2121 49.7502 32.2068 48.4049C33.0832 45.7806 33.9003 42.3533 34.0401 38.3174C34.3124 30.4753 31.9108 24.1774 29.9378 20.3049C29.5636 19.5706 28.4764 19.6891 28.2609 20.4849C27.6854 22.6308 27.1122 24.779 26.5366 26.9249C28.0122 29.5113 30.3784 34.4638 30.7194 41.0933C30.9705 45.944 30.0468 49.897 29.2273 52.4384H29.2249Z" fill="#AB7C4C"/>
<path d="M56.4438 16.3068C55.6835 17.3015 54.9208 18.2963 54.1605 19.2911C48.6585 20.5819 43.1564 21.8704 37.6567 23.1612C38.2797 22.1996 38.9026 21.2356 39.5231 20.274C45.1625 18.9524 50.8044 17.6308 56.4438 16.3068Z" fill="#AB7C4C"/>
<path d="M16.4869 71.9123H4.83857C2.18584 71.9123 0.0375977 69.7783 0.0375977 67.1445V56.0031C0.0375977 55.5601 0.57526 55.3351 0.892641 55.6454C6.20758 60.7803 11.5225 65.9153 16.8375 71.0502C17.1596 71.3628 16.9369 71.91 16.4845 71.91L16.4869 71.9123Z" fill="#EAC0B2"/>
</svg>
