<svg width="393" height="247" viewBox="0 0 393 247" fill="none" xmlns="http://www.w3.org/2000/svg">
<path d="M92.0077 215.333C86.8496 215.333 82.7535 214.554 79.7193 212.994C76.723 211.397 74.4664 208.734 72.9493 205.007C71.4701 201.241 70.6168 196.03 70.3892 189.374C70.0099 177.241 69.5927 167.884 69.1376 161.304C68.7204 154.685 68.2463 149.589 67.7153 146.013C67.1844 142.438 66.4068 138.463 65.3828 134.089C67.393 132.073 69.5358 129.563 71.8115 126.558C74.0871 123.553 76.0593 120.701 77.7281 118H78.4108C78.4108 120.054 78.5056 122.659 78.6953 125.816C78.9607 132.13 79.0935 137.417 79.0935 141.677C79.0935 145.405 78.9797 151.605 78.7521 160.277C78.5246 169.481 78.4108 176.442 78.4108 181.158C78.4108 186.369 79.7193 190.192 82.3363 192.626C84.9532 195.022 89.22 196.221 95.1367 196.221L92.0077 215.333Z" fill="url(#paint0_linear_25_3407)"/>
<path d="M156.907 190.287C156.907 195.384 155.902 200.29 153.892 205.007C151.919 209.723 149.226 213.85 145.813 217.387C142.589 215.676 132.652 212.595 116.002 208.145C113.461 210.465 110.105 212.253 105.933 213.508C101.799 214.725 97.1714 215.333 92.0512 215.333C90.7617 215.333 89.9084 214.687 89.4912 213.394C89.036 212.1 88.8085 210.674 88.8085 209.115C88.8085 206.034 89.2446 203.124 90.117 200.385C90.9893 197.609 92.677 196.221 95.1802 196.221C98.0248 196.221 100.357 196.163 102.178 196.049C101.154 194.224 100.642 191.789 100.642 188.746C100.642 184.753 101.457 180.835 103.088 176.993C104.757 173.114 106.881 169.843 109.46 167.18C106.464 165.773 104.378 164.822 103.202 164.328C104.074 162.236 104.814 159.706 105.421 156.739C106.065 153.773 106.445 151.129 106.558 148.809H107.241C109.024 150.292 111.413 151.89 114.409 153.601C117.406 155.313 121.995 157.823 128.177 161.133L131.647 162.958C138.322 166.496 143.443 169.634 147.008 172.372C150.611 175.073 153.152 177.811 154.631 180.588C156.148 183.364 156.907 186.597 156.907 190.287ZM116.059 172.657C113.784 172.657 111.698 173.114 109.801 174.027C107.905 174.901 106.407 176.062 105.307 177.507C104.245 178.914 103.714 180.398 103.714 181.957C103.714 184.277 105.079 186.483 107.81 188.575C110.541 190.629 114.22 192.417 118.847 193.938C123.246 192.303 126.394 190.762 128.291 189.317C130.187 187.834 131.135 186.426 131.135 185.095C131.135 183.117 130.377 181.158 128.86 179.219C127.342 177.279 125.408 175.7 123.057 174.483C120.705 173.266 118.373 172.657 116.059 172.657ZM153.721 196.677C153.721 194.889 153.095 193.197 151.843 191.599C150.63 190.002 148.563 188.233 145.642 186.293C142.722 184.315 138.512 181.824 133.013 178.819C133.051 179.085 133.069 179.504 133.069 180.074C133.069 183.079 132.652 185.97 131.818 188.746C131.021 191.485 129.808 194.014 128.177 196.335C139.555 199.073 147.273 201.336 151.331 203.124C151.976 202.173 152.526 201.07 152.981 199.815C153.474 198.56 153.721 197.514 153.721 196.677Z" fill="url(#paint1_linear_25_3407)"/>
<path d="M181.788 215.333C176.63 215.333 172.534 214.554 169.5 212.994C166.504 211.397 164.247 208.734 162.73 205.007C161.251 201.241 160.397 196.03 160.17 189.374C159.791 177.241 159.373 167.884 158.918 161.304C158.501 154.685 158.027 149.589 157.496 146.013C156.965 142.438 156.188 138.463 155.164 134.089C157.174 132.073 159.317 129.563 161.592 126.558C163.868 123.553 165.84 120.701 167.509 118H168.192C168.192 120.054 168.286 122.659 168.476 125.816C168.741 132.13 168.874 137.417 168.874 141.677C168.874 145.405 168.76 151.605 168.533 160.277C168.305 169.481 168.192 176.442 168.192 181.158C168.192 186.369 169.5 190.192 172.117 192.626C174.734 195.022 179.001 196.221 184.917 196.221L181.788 215.333Z" fill="url(#paint2_linear_25_3407)"/>
<path d="M211.87 188.233C211.87 194.433 210.903 199.511 208.969 203.466C207.035 207.422 203.868 210.389 199.468 212.367C195.069 214.345 189.19 215.333 181.832 215.333C180.732 215.333 179.917 214.82 179.386 213.793C178.855 212.728 178.589 211.169 178.589 209.115C178.589 204.855 179.139 201.641 180.239 199.473C181.339 197.305 182.913 196.221 184.961 196.221C189.247 196.221 193.286 195.973 197.079 195.479C200.909 194.946 203.981 194.281 206.295 193.482C208.609 192.645 209.765 191.751 209.765 190.8C209.765 189.964 209.045 188.632 207.604 186.807C206.2 184.981 204.399 183.022 202.199 180.93C200.037 178.838 197.894 177.012 195.77 175.453C196.908 174.198 198.217 171.992 199.696 168.835C201.175 165.678 202.54 162.502 203.792 159.307H204.475C204.664 159.839 205.043 160.752 205.612 162.045C207.395 166.077 208.874 170.147 210.05 174.255C211.263 178.325 211.87 182.984 211.87 188.233ZM171.876 239.182C172.521 238.079 173.317 236.196 174.266 233.534C175.176 230.871 175.821 228.817 176.2 227.372C180.448 227.067 184.695 226.82 188.943 226.63C193.229 226.478 196.548 226.402 198.899 226.402C202.199 226.402 204.626 226.782 206.181 227.543C207.736 228.304 208.514 229.654 208.514 231.594C208.514 232.202 208.419 232.868 208.229 233.591C208.04 234.351 207.774 235.283 207.433 236.386C207.395 236.576 207.186 237.204 206.807 238.269C206.466 239.372 206.219 240.475 206.067 241.578H205.385C205.385 240.323 204.702 239.448 203.337 238.954C201.971 238.497 199.696 238.269 196.51 238.269C194.31 238.269 190.498 238.345 185.075 238.497C179.651 238.687 175.252 238.916 171.876 239.182Z" fill="url(#paint3_linear_25_3407)"/>
<path d="M238.134 118C238.134 119.521 238.267 123.743 238.533 130.666C239.215 147.021 239.557 160.144 239.557 170.033C239.557 177.868 239.367 184.125 238.988 188.804C238.608 193.444 238.115 197.095 237.508 199.758C236.902 202.382 235.991 205.501 234.778 209.115C234.626 209.571 234.266 210.617 233.697 212.253C233.166 213.888 232.654 215.6 232.161 217.387H231.478C231.516 216.665 231.535 215.448 231.535 213.736C231.535 207.346 231.137 198.446 230.34 187.035C229.544 175.624 228.615 164.708 227.553 154.286C226.529 143.826 225.713 137.094 225.106 134.089C227.116 132.073 229.259 129.563 231.535 126.558C233.811 123.553 235.783 120.701 237.452 118H238.134Z" fill="url(#paint4_linear_25_3407)"/>
<path d="M274.102 167.123C278.35 167.123 282.01 168.549 285.082 171.402C288.154 174.217 290.505 178.287 292.136 183.612C293.767 188.937 294.582 195.27 294.582 202.611C294.582 211.853 293.255 219.746 290.6 226.288C287.945 232.868 284.399 237.832 279.961 241.179C275.562 244.526 270.707 246.199 265.397 246.199C262.591 246.199 259.898 245.781 257.319 244.944C254.778 244.146 251.744 242.966 248.216 241.407C245.448 240.114 243.172 239.201 241.39 238.668V237.984C248.406 236.957 255.935 234.808 263.975 231.537C272.054 228.304 278.843 224.538 284.342 220.24C289.841 215.942 292.591 211.777 292.591 207.745C292.591 204.36 292.25 201.241 291.567 198.389L291.169 198.446C290.752 203.695 288.836 207.821 285.423 210.826C282.01 213.831 277.382 215.333 271.542 215.333C265.777 215.333 261.491 213.736 258.684 210.541C255.878 207.346 254.474 202.687 254.474 196.563C254.474 191.314 255.29 186.445 256.921 181.957C258.552 177.431 260.846 173.836 263.804 171.174C266.801 168.473 270.233 167.123 274.102 167.123ZM272.224 197.419C275.486 197.419 278.463 197.152 281.156 196.62C283.887 196.049 286.864 195.098 290.088 193.767C288.381 189.659 285.935 186.483 282.749 184.239C279.601 181.957 275.884 180.816 271.599 180.816C269.019 180.816 266.592 181.33 264.316 182.356C262.079 183.383 260.277 184.639 258.912 186.122C257.584 187.605 256.921 188.994 256.921 190.287C256.921 191.504 257.414 192.664 258.4 193.767C259.386 194.832 261.017 195.707 263.292 196.392C265.568 197.076 268.545 197.419 272.224 197.419Z" fill="url(#paint5_linear_25_3407)"/>
<path d="M308.672 246.199C306.055 246.199 303.608 245.781 301.333 244.944C299.057 244.146 296.364 242.966 293.254 241.407C290.448 240.038 288.494 239.163 287.395 238.783V238.098C294.108 236.729 301.124 234.218 308.444 230.567C315.764 226.915 321.851 223.017 326.706 218.871C331.599 214.725 334.045 211.359 334.045 208.772C334.045 207.327 332.699 205.159 330.006 202.268C327.351 199.339 323.425 195.764 318.229 191.542C319.519 189.602 320.941 187.016 322.496 183.783C324.089 180.512 325.322 177.545 326.194 174.882H326.877L328.071 177.336C329.513 180.188 330.745 182.832 331.769 185.266C332.793 187.7 333.704 190.534 334.5 193.767C335.297 196.962 335.695 200.29 335.695 203.752C335.695 212.462 334.481 220.012 332.054 226.402C329.626 232.83 326.346 237.737 322.212 241.122C318.116 244.507 313.602 246.199 308.672 246.199ZM325.511 166.724C324.487 165.354 322.894 163.795 320.733 162.045C318.609 160.258 316.769 159.041 315.214 158.394V157.652L323.577 147.383C325.549 148.334 327.616 149.779 329.778 151.719C331.94 153.62 333.514 155.389 334.5 157.025L325.511 166.724Z" fill="url(#paint6_linear_25_3407)"/>
<path d="M52.8126 64.4994C50.0569 64.4994 47.8672 63.7121 46.2433 62.1375C44.6194 60.5382 43.7829 58.1885 43.7337 55.0884H43.2908C43.3154 58.6068 42.9463 61.9529 42.1836 65.1269C41.4455 68.3008 40.3752 71.0564 38.9728 73.3938C37.1029 77.1828 34.4826 80.0492 31.1118 81.9929C27.7411 83.9612 23.4476 84.9454 18.2316 84.9454C14.3934 84.9454 11.1087 84.1827 8.37767 82.6572C5.64663 81.1564 3.56759 78.9543 2.14055 76.051C0.713517 73.1724 0 69.6786 0 65.5697C0 59.1481 1.41473 52.8371 4.2442 46.6369H5.09304C3.56759 50.7212 2.80486 54.7809 2.80486 58.8159C2.80486 61.7192 3.46917 64.1919 4.79779 66.234C6.12641 68.3008 8.04552 69.8631 10.5551 70.9211C13.0647 72.0037 16.0418 72.545 19.4864 72.545C23.1278 72.545 26.5724 72.0529 29.8201 71.0687C33.0678 70.1092 35.6635 68.7682 37.6073 67.046C39.5756 65.3237 40.5598 63.4046 40.5598 61.2886C40.4613 56.9829 40.1415 51.2994 39.6002 44.238C39.0589 37.1767 38.4561 30.4967 37.7918 24.198C37.1275 17.8748 36.6108 13.7905 36.2417 11.9452C37.5704 10.592 38.9728 8.94353 40.449 6.99982C41.9253 5.0561 43.1801 3.2354 44.2135 1.53772H44.6932C44.6932 14.2088 44.7424 26.4985 44.8409 38.4069C44.8655 39.4156 44.8778 40.5597 44.8778 41.8391C44.8778 45.4313 45.6651 48.0517 47.2397 49.7001C48.8144 51.324 51.3363 52.1359 54.8055 52.1359L52.8126 64.4994Z" fill="#192D35"/>
<path d="M80.7274 45.6035C80.7274 50.2783 79.8047 53.9935 77.9594 56.7492C76.1387 59.5048 73.3708 61.4855 69.6556 62.6911C65.965 63.8966 61.1672 64.4994 55.2622 64.4994H52.7895C52.076 64.4994 51.547 64.1673 51.2025 63.503C50.8581 62.8141 50.6858 61.8053 50.6858 60.4767C50.6858 57.721 51.0426 55.642 51.7561 54.2396C52.4696 52.8371 53.4907 52.1359 54.8193 52.1359H56.9599C62.1513 52.1359 66.4324 51.8776 69.8032 51.3609C73.1739 50.8442 75.6343 50.1922 77.1844 49.4049C78.7345 48.6175 79.5095 47.781 79.5095 46.8953C79.5095 46.1571 78.4884 44.9269 76.4463 43.2047C74.4041 41.4578 71.4886 39.5017 67.6995 37.3366C63.9351 35.1714 59.5679 33.0801 54.5979 31.0626C55.2376 29.6601 56.0741 27.5934 57.1075 24.8623C58.1409 22.1313 58.8913 20.0277 59.3588 18.5514C59.408 18.3546 59.531 17.8748 59.7278 17.1121C59.9493 16.3493 60.2568 15.7958 60.6505 15.4513C61.0442 15.1068 61.6223 14.787 62.3851 14.4917L93.3862 2.09131L93.829 2.27584C92.648 4.29337 91.6024 6.34781 90.692 8.43915C89.7817 10.5059 89.0804 12.3881 88.5884 14.0858L59.3957 22.5742V23.0539C65.3006 25.7358 69.7909 28.2454 72.8664 30.5828C75.9419 32.8956 78.0209 35.2083 79.1035 37.5211C80.1861 39.8093 80.7274 42.5034 80.7274 45.6035Z" fill="#192D35"/>
<path d="M160.026 22.7833C161.183 26.597 162.364 29.5741 163.569 31.7146C164.775 33.8306 166.03 35.3068 167.334 36.1433C168.638 36.9799 170.114 37.3981 171.763 37.3981L169.733 49.7617C168.38 49.7617 167.162 49.5033 166.079 48.9866C164.996 48.47 163.988 47.6211 163.053 46.4401C162.585 51.5332 161.244 55.8512 159.03 59.3941C156.84 62.9617 153.912 65.6559 150.246 67.4766C146.58 69.2973 142.348 70.2076 137.551 70.2076C133.442 70.2076 129.96 69.4449 127.106 67.9195C124.252 66.4186 122.087 64.2165 120.611 61.3133C119.159 58.4346 118.433 54.9408 118.433 50.8319C118.433 44.4841 119.848 38.1732 122.678 31.8991H123.563C122.013 35.9588 121.238 40.0185 121.238 44.0781C121.238 46.9814 121.915 49.4541 123.268 51.4963C124.646 53.5384 126.651 55.1007 129.284 56.1833C131.916 57.2659 135.09 57.8072 138.805 57.8072C143.21 57.8072 147.159 57.1798 150.652 55.925C154.146 54.6702 156.865 53.0709 158.809 51.1272C160.777 49.1835 161.761 47.2398 161.761 45.296C161.761 44.5087 161.183 43.0079 160.026 40.7935C158.895 38.5545 157.271 35.762 155.155 32.4158C155.745 31.6039 156.471 30.2507 157.332 28.3562C158.218 26.4616 158.956 24.604 159.547 22.7833H160.026ZM139.322 39.022C138.658 38.1363 137.624 37.1275 136.222 35.9957C134.844 34.8393 133.651 34.052 132.642 33.6337V33.1539L138.067 26.5109C139.347 27.126 140.688 28.0609 142.09 29.3157C143.493 30.5459 144.514 31.69 145.153 32.748L139.322 39.022Z" fill="#192D35"/>
<path d="M196.466 16.9153C198.73 16.9153 200.698 17.6903 202.371 19.2404C204.069 20.7658 205.36 22.8449 206.246 25.4775C207.156 28.1101 207.612 31.0257 207.612 34.2242C207.612 37.3243 207.23 40.0554 206.468 42.4174C205.729 44.7794 204.745 46.6001 203.515 47.8795C202.285 49.1343 200.969 49.7617 199.566 49.7617C196.54 49.7617 193.698 49.3065 191.041 48.3961C188.408 47.4858 186.268 46.2187 184.619 44.5948C182.995 42.9464 182.134 41.0887 182.036 39.022C181.987 37.3243 182.22 35.233 182.737 32.748L182.294 32.7111C181.974 33.5476 181.63 34.7655 181.261 36.3648C180.572 39.0466 179.858 41.2856 179.12 43.0817C178.407 44.8532 177.287 46.4155 175.762 47.7687C174.236 49.0974 172.219 49.7617 169.709 49.7617C169.045 49.7617 168.528 49.4295 168.159 48.7652C167.79 48.1009 167.605 47.0921 167.605 45.7389C167.605 43.0079 167.975 40.9411 168.713 39.5387C169.426 38.1117 170.435 37.3981 171.739 37.3981C173.584 37.3981 175.11 37.189 176.315 36.7707C177.521 36.3525 178.603 35.5405 179.563 34.3349C180.523 33.1293 181.421 31.3456 182.257 28.9836L183.918 30.2753C185.517 26.9045 186.969 24.2596 188.273 22.3405C189.577 20.4214 190.869 19.0435 192.148 18.207C193.452 17.3459 194.891 16.9153 196.466 16.9153ZM194.067 25.7358C190.032 25.7358 187.067 27.4089 185.173 30.7551C186.034 32.0345 187.412 33.1786 189.306 34.1873C191.201 35.1961 193.231 35.9834 195.396 36.5493C197.561 37.1152 199.48 37.3981 201.153 37.3981C202.802 37.3981 204.007 37.2382 204.77 36.9184C205.557 36.5985 205.951 36.1064 205.951 35.4421C205.951 34.1135 205.434 32.6865 204.401 31.161C203.367 29.6356 201.94 28.3562 200.12 27.3228C198.299 26.2648 196.281 25.7358 194.067 25.7358Z" fill="#192D35"/>
<path d="M260.19 39.8954C260.19 43.5614 260.978 46.2679 262.552 48.0148C264.127 49.7371 266.464 50.5982 269.564 50.5982L267.572 62.9617C264.791 62.9617 262.479 62.3958 260.633 61.2641C258.788 60.1077 257.349 58.2255 256.315 55.6174C255.306 52.9848 254.728 49.4664 254.581 45.0623H254.138C253.646 49.8847 252.403 53.4031 250.41 55.6174C248.417 57.8318 245.44 58.939 241.479 58.939C238.428 58.939 236.115 58.2378 234.541 56.8353C232.991 55.4083 232.216 53.3908 232.216 50.7827C232.216 48.2731 232.781 45.9603 233.913 43.8444C235.045 41.7284 237.05 39.4403 239.929 36.9799C242.832 34.5195 246.966 31.6162 252.329 28.27C252.059 26.6708 251.813 25.416 251.591 24.5056C252.698 23.6445 253.916 22.4758 255.245 20.9995C256.598 19.4987 257.742 17.9855 258.677 16.4601H258.972C259.022 17.0014 259.071 17.3951 259.12 17.6411C259.44 20.2983 259.698 23.2385 259.895 26.4616C260.092 29.6602 260.19 34.1381 260.19 39.8954ZM242.697 46.9445C245.945 46.9445 248.59 46.5139 250.632 45.6528C252.698 44.767 253.732 43.5368 253.732 41.9622C253.732 39.4772 253.449 36.1433 252.883 31.9606C246.584 35.0854 242.156 37.6196 239.597 39.5633C237.063 41.507 235.795 42.9832 235.795 43.992C235.795 45.0254 236.3 45.7758 237.309 46.2433C238.317 46.7108 240.113 46.9445 242.697 46.9445Z" fill="#192D35"/>
<path d="M329.859 50.5982L327.866 62.9617C323.019 62.9617 320.595 59.3818 320.595 52.2221C318.651 55.6174 315.859 58.2624 312.218 60.1569C308.576 62.0268 304.357 62.9617 299.559 62.9617C293.555 62.9617 288.991 61.9776 285.867 60.0092C282.766 58.0409 281.02 55.2607 280.626 51.6685H280.183C279.593 55.4575 278.178 58.287 275.939 60.1569C273.724 62.0268 270.932 62.9617 267.561 62.9617C266.897 62.9617 266.38 62.6296 266.011 61.9653C265.642 61.301 265.458 60.2922 265.458 58.939C265.458 56.2079 265.827 54.1412 266.565 52.7388C267.278 51.3117 268.287 50.5982 269.591 50.5982C272.248 50.5982 274.413 50.3153 276.086 49.7494C277.76 49.1589 279.113 48.1624 280.146 46.76C281.204 45.3575 282.004 43.3892 282.545 40.855H283.357C283.603 42.7249 284.218 44.3119 285.202 45.6159C286.186 46.9199 287.601 47.9656 289.446 48.7529C292.67 43.5861 295.573 39.4772 298.156 36.4263C300.74 33.3754 303.2 31.1733 305.538 29.8201C307.875 28.4423 310.274 27.7534 312.734 27.7534C314.949 27.7534 316.855 28.3069 318.455 29.4141C320.078 30.4967 321.321 32.0345 322.182 34.0274C323.043 35.9957 323.474 38.2962 323.474 40.9288C323.474 44.2258 322.883 47.2644 321.702 50.0446C323.179 50.4137 325.737 50.5982 329.379 50.5982H329.859ZM301.589 50.5982C305.451 50.5982 308.896 50.4014 311.922 50.0077C314.949 49.614 317.311 49.0604 319.008 48.3469C320.73 47.6088 321.592 46.7354 321.592 45.7266C321.592 44.7178 321.136 43.5614 320.226 42.2574C319.34 40.9288 318.036 39.7847 316.314 38.8252C314.592 37.8656 312.587 37.3858 310.298 37.3858C308.207 37.3858 305.931 37.8902 303.471 38.899C301.01 39.8831 298.611 41.261 296.274 43.0325C293.961 44.8039 291.944 46.8092 290.221 49.0481C293.026 50.0815 296.815 50.5982 301.589 50.5982Z" fill="#192D35"/>
<path d="M353.767 50.4875C355.883 50.5613 358.282 50.5982 360.963 50.5982L358.934 62.9617C354.087 62.9617 350.421 62.4573 347.936 61.4486C345.475 60.4152 343.851 58.8405 343.064 56.7246H342.843C342.031 58.2747 341.01 59.5049 339.779 60.4152C338.574 61.301 337.011 61.953 335.092 62.3712C333.198 62.7649 330.787 62.9617 327.859 62.9617C326.432 62.9617 325.718 61.6208 325.718 58.939C325.718 56.2079 326.087 54.1412 326.825 52.7388C327.563 51.3117 328.572 50.5982 329.852 50.5982C331.451 50.5982 332.927 50.5613 334.28 50.4875C333.641 49.2819 333.321 47.9164 333.321 46.3909C333.321 42.9709 333.911 39.797 335.092 36.8691C336.298 33.9167 337.909 31.567 339.927 29.8201C341.969 28.0486 344.196 27.1629 346.607 27.1629C348.649 27.1629 350.445 27.7287 351.995 28.8605C353.57 29.9677 354.776 31.5424 355.612 33.5845C356.473 35.6266 356.904 38.0132 356.904 40.7443C356.904 42.688 356.633 44.4841 356.092 46.1326C355.575 47.781 354.8 49.2327 353.767 50.4875ZM335.019 41.9622C335.019 42.7495 335.412 43.6722 336.2 44.7301C337.011 45.7635 338.143 46.7846 339.595 47.7933C341.047 48.8021 342.683 49.6263 344.503 50.266C346.841 49.774 348.821 49.1589 350.445 48.4207C352.069 47.6826 353.275 46.9322 354.062 46.1695C354.849 45.3821 355.243 44.6563 355.243 43.992C355.243 42.7126 354.763 41.4578 353.804 40.2276C352.869 38.9728 351.626 37.964 350.076 37.2013C348.551 36.414 346.951 36.0203 345.278 36.0203C343.581 36.0203 341.932 36.3279 340.333 36.943C338.758 37.5581 337.479 38.3331 336.495 39.268C335.511 40.203 335.019 41.101 335.019 41.9622ZM358.232 10.6289C357.814 11.3425 357.297 12.5604 356.682 14.2826C356.092 16.0049 355.674 17.3335 355.428 18.2685C352.672 18.4653 349.904 18.6253 347.124 18.7483C344.368 18.8467 342.228 18.8959 340.702 18.8959C338.562 18.8959 336.987 18.6499 335.978 18.1578C334.969 17.6657 334.465 16.7923 334.465 15.5374C334.465 15.1438 334.526 14.7132 334.649 14.2457C334.772 13.7537 334.945 13.1509 335.166 12.4373C335.191 12.3143 335.314 11.9084 335.535 11.2194C335.781 10.5059 335.953 9.79241 336.052 9.07889H336.495C336.495 9.89082 336.938 10.4567 337.823 10.7766C338.709 11.0718 340.185 11.2194 342.252 11.2194C343.679 11.2194 346.152 11.1702 349.67 11.0718C353.189 10.9488 356.043 10.8012 358.232 10.6289Z" fill="#192D35"/>
<path d="M375.052 34.7286C375.052 37.2136 374.769 39.9939 374.204 43.0694C373.662 46.1449 372.863 49.1589 371.805 52.1113C370.747 55.0638 369.492 57.5611 368.04 59.6033C367.13 60.8827 366.01 61.7684 364.682 62.2605C363.353 62.728 361.582 62.9617 359.367 62.9617C358.654 62.9617 358.063 62.605 357.596 61.8914C357.104 61.1779 356.858 60.1569 356.858 58.8282C356.858 56.0726 357.214 54.0182 357.928 52.6649C358.641 51.2871 359.663 50.5982 360.991 50.5982C364.214 50.5982 366.699 50.3522 368.446 49.8601C370.193 49.3434 371.066 48.6791 371.066 47.8672C371.066 45.7758 370.722 42.2205 370.033 37.2013C369.344 32.1821 368.545 27.0275 367.634 21.7377C366.748 16.4478 366.06 12.6711 365.568 10.4075C366.872 9.10349 368.249 7.49193 369.701 5.57281C371.153 3.6537 372.444 1.79609 373.576 0H374.019C374.019 0.664308 374.056 1.95602 374.13 3.87514C374.204 5.79425 374.265 7.36891 374.314 8.59911C374.56 14.5287 374.745 19.4495 374.868 23.3615C374.991 27.249 375.052 31.038 375.052 34.7286Z" fill="#192D35"/>
<path d="M391.161 0C391.161 0.98416 391.247 3.71521 391.419 8.19314C391.862 18.7729 392.083 27.2613 392.083 33.6583C392.083 38.7268 391.96 42.7741 391.714 45.8004C391.468 48.8021 391.148 51.1641 390.755 52.8864C390.361 54.5841 389.771 56.6016 388.983 58.939C388.885 59.2342 388.651 59.9108 388.282 60.9688C387.938 62.0268 387.605 63.134 387.286 64.2903H386.843C386.867 63.8229 386.88 63.0355 386.88 61.9284C386.88 57.7949 386.621 52.0375 386.105 44.6563C385.588 37.2751 384.985 30.2138 384.296 23.4722C383.632 16.7061 383.103 12.3512 382.709 10.4075C384.013 9.10349 385.403 7.47963 386.88 5.53591C388.356 3.59219 389.635 1.74689 390.718 0H391.161Z" fill="#192D35"/>
<defs>
<linearGradient id="paint0_linear_25_3407" x1="200.539" y1="118" x2="116.011" y2="246.149" gradientUnits="userSpaceOnUse">
<stop stop-color="#B67A3E"/>
<stop offset="1" stop-color="#9FB25D"/>
</linearGradient>
<linearGradient id="paint1_linear_25_3407" x1="200.539" y1="118" x2="116.011" y2="246.149" gradientUnits="userSpaceOnUse">
<stop stop-color="#B67A3E"/>
<stop offset="1" stop-color="#9FB25D"/>
</linearGradient>
<linearGradient id="paint2_linear_25_3407" x1="200.539" y1="118" x2="116.011" y2="246.149" gradientUnits="userSpaceOnUse">
<stop stop-color="#B67A3E"/>
<stop offset="1" stop-color="#9FB25D"/>
</linearGradient>
<linearGradient id="paint3_linear_25_3407" x1="200.539" y1="118" x2="116.011" y2="246.149" gradientUnits="userSpaceOnUse">
<stop stop-color="#B67A3E"/>
<stop offset="1" stop-color="#9FB25D"/>
</linearGradient>
<linearGradient id="paint4_linear_25_3407" x1="200.539" y1="118" x2="116.011" y2="246.149" gradientUnits="userSpaceOnUse">
<stop stop-color="#B67A3E"/>
<stop offset="1" stop-color="#9FB25D"/>
</linearGradient>
<linearGradient id="paint5_linear_25_3407" x1="200.539" y1="118" x2="116.011" y2="246.149" gradientUnits="userSpaceOnUse">
<stop stop-color="#B67A3E"/>
<stop offset="1" stop-color="#9FB25D"/>
</linearGradient>
<linearGradient id="paint6_linear_25_3407" x1="200.539" y1="118" x2="116.011" y2="246.149" gradientUnits="userSpaceOnUse">
<stop stop-color="#B67A3E"/>
<stop offset="1" stop-color="#9FB25D"/>
</linearGradient>
</defs>
</svg>
